<svg width="301" height="39" viewBox="0 0 301 39" fill="none" xmlns="http://www.w3.org/2000/svg">
<path d="M5.60938 20.9062L20.5156 26.2969V32.6484L0.265625 24.0703V19.5703L5.60938 20.9062ZM20.5156 16.5L5.58594 21.9844L0.265625 23.25V18.75L20.5156 10.1719V16.5ZM45.5 1.875V36H38.4688V1.875H45.5ZM65.9375 1.875L52.4141 18.7266L44.6094 27.1172L43.3438 20.4609L48.6172 13.2422L57.3125 1.875H65.9375ZM57.9453 36L47.8906 20.2266L53.0938 15.8672L66.2656 36H57.9453ZM79.625 36.4688C77.6562 36.4688 75.8906 36.1562 74.3281 35.5312C72.7656 34.8906 71.4375 34.0078 70.3438 32.8828C69.2656 31.7578 68.4375 30.4531 67.8594 28.9688C67.2812 27.4688 66.9922 25.875 66.9922 24.1875V23.25C66.9922 21.3281 67.2656 19.5703 67.8125 17.9766C68.3594 16.3828 69.1406 15 70.1562 13.8281C71.1875 12.6562 72.4375 11.7578 73.9062 11.1328C75.375 10.4922 77.0312 10.1719 78.875 10.1719C80.6719 10.1719 82.2656 10.4688 83.6562 11.0625C85.0469 11.6562 86.2109 12.5 87.1484 13.5938C88.1016 14.6875 88.8203 16 89.3047 17.5312C89.7891 19.0469 90.0312 20.7344 90.0312 22.5938V25.4062H69.875V20.9062H83.3984V20.3906C83.3984 19.4531 83.2266 18.6172 82.8828 17.8828C82.5547 17.1328 82.0547 16.5391 81.3828 16.1016C80.7109 15.6641 79.8516 15.4453 78.8047 15.4453C77.9141 15.4453 77.1484 15.6406 76.5078 16.0312C75.8672 16.4219 75.3438 16.9688 74.9375 17.6719C74.5469 18.375 74.25 19.2031 74.0469 20.1562C73.8594 21.0938 73.7656 22.125 73.7656 23.25V24.1875C73.7656 25.2031 73.9062 26.1406 74.1875 27C74.4844 27.8594 74.8984 28.6016 75.4297 29.2266C75.9766 29.8516 76.6328 30.3359 77.3984 30.6797C78.1797 31.0234 79.0625 31.1953 80.0469 31.1953C81.2656 31.1953 82.3984 30.9609 83.4453 30.4922C84.5078 30.0078 85.4219 29.2812 86.1875 28.3125L89.4688 31.875C88.9375 32.6406 88.2109 33.375 87.2891 34.0781C86.3828 34.7812 85.2891 35.3594 84.0078 35.8125C82.7266 36.25 81.2656 36.4688 79.625 36.4688ZM102.172 31.0781L107.797 10.6406H114.852L106.297 36H102.031L102.172 31.0781ZM98.3047 10.6406L103.953 31.1016L104.07 36H99.7812L91.2266 10.6406H98.3047ZM125 10.6406V36H118.227V10.6406H125ZM117.805 4.03125C117.805 3.04688 118.148 2.23437 118.836 1.59375C119.523 0.953125 120.445 0.632812 121.602 0.632812C122.742 0.632812 123.656 0.953125 124.344 1.59375C125.047 2.23437 125.398 3.04688 125.398 4.03125C125.398 5.01562 125.047 5.82813 124.344 6.46875C123.656 7.10937 122.742 7.42969 121.602 7.42969C120.445 7.42969 119.523 7.10937 118.836 6.46875C118.148 5.82813 117.805 5.01562 117.805 4.03125ZM137.188 16.0547V36H130.438V10.6406H136.766L137.188 16.0547ZM136.203 22.4297H134.375C134.375 20.5547 134.617 18.8672 135.102 17.3672C135.586 15.8516 136.266 14.5625 137.141 13.5C138.016 12.4219 139.055 11.6016 140.258 11.0391C141.477 10.4609 142.836 10.1719 144.336 10.1719C145.523 10.1719 146.609 10.3438 147.594 10.6875C148.578 11.0312 149.422 11.5781 150.125 12.3281C150.844 13.0781 151.391 14.0703 151.766 15.3047C152.156 16.5391 152.352 18.0469 152.352 19.8281V36H145.555V19.8047C145.555 18.6797 145.398 17.8047 145.086 17.1797C144.773 16.5547 144.312 16.1172 143.703 15.8672C143.109 15.6016 142.375 15.4688 141.5 15.4688C140.594 15.4688 139.805 15.6484 139.133 16.0078C138.477 16.3672 137.93 16.8672 137.492 17.5078C137.07 18.1328 136.75 18.8672 136.531 19.7109C136.312 20.5547 136.203 21.4609 136.203 22.4297ZM277.109 1.875L264.594 38.9297H259.578L272.094 1.875H277.109ZM295.531 21.8438L280.508 16.4766V10.1719L300.922 18.75V23.2734L295.531 21.8438ZM280.508 26.3438L295.555 20.8594L300.922 19.5703V24.0703L280.508 32.6484V26.3438Z" fill="#1F1067"/>
<path d="M180.336 36H172.906L172.953 30.5156H180.336C182.18 30.5156 183.734 30.1016 185 29.2734C186.266 28.4297 187.219 27.2031 187.859 25.5938C188.516 23.9844 188.844 22.0391 188.844 19.7578V18.0938C188.844 16.3438 188.656 14.8047 188.281 13.4766C187.922 12.1484 187.383 11.0312 186.664 10.125C185.945 9.21875 185.062 8.53906 184.016 8.08594C182.969 7.61719 181.766 7.38281 180.406 7.38281H172.766V1.875H180.406C182.688 1.875 184.773 2.26563 186.664 3.04688C188.57 3.8125 190.219 4.91406 191.609 6.35156C193 7.78906 194.07 9.50781 194.82 11.5078C195.586 13.4922 195.969 15.7031 195.969 18.1406V19.7578C195.969 22.1797 195.586 24.3906 194.82 26.3906C194.07 28.3906 193 30.1094 191.609 31.5469C190.234 32.9688 188.586 34.0703 186.664 34.8516C184.758 35.6172 182.648 36 180.336 36ZM176.891 1.875V36H169.859V1.875H176.891ZM212.328 36.4688C210.359 36.4688 208.594 36.1562 207.031 35.5312C205.469 34.8906 204.141 34.0078 203.047 32.8828C201.969 31.7578 201.141 30.4531 200.562 28.9688C199.984 27.4688 199.695 25.875 199.695 24.1875V23.25C199.695 21.3281 199.969 19.5703 200.516 17.9766C201.062 16.3828 201.844 15 202.859 13.8281C203.891 12.6562 205.141 11.7578 206.609 11.1328C208.078 10.4922 209.734 10.1719 211.578 10.1719C213.375 10.1719 214.969 10.4688 216.359 11.0625C217.75 11.6562 218.914 12.5 219.852 13.5938C220.805 14.6875 221.523 16 222.008 17.5312C222.492 19.0469 222.734 20.7344 222.734 22.5938V25.4062H202.578V20.9062H216.102V20.3906C216.102 19.4531 215.93 18.6172 215.586 17.8828C215.258 17.1328 214.758 16.5391 214.086 16.1016C213.414 15.6641 212.555 15.4453 211.508 15.4453C210.617 15.4453 209.852 15.6406 209.211 16.0312C208.57 16.4219 208.047 16.9688 207.641 17.6719C207.25 18.375 206.953 19.2031 206.75 20.1562C206.562 21.0938 206.469 22.125 206.469 23.25V24.1875C206.469 25.2031 206.609 26.1406 206.891 27C207.188 27.8594 207.602 28.6016 208.133 29.2266C208.68 29.8516 209.336 30.3359 210.102 30.6797C210.883 31.0234 211.766 31.1953 212.75 31.1953C213.969 31.1953 215.102 30.9609 216.148 30.4922C217.211 30.0078 218.125 29.2812 218.891 28.3125L222.172 31.875C221.641 32.6406 220.914 33.375 219.992 34.0781C219.086 34.7812 217.992 35.3594 216.711 35.8125C215.43 36.25 213.969 36.4688 212.328 36.4688ZM234.875 31.0781L240.5 10.6406H247.555L239 36H234.734L234.875 31.0781ZM231.008 10.6406L236.656 31.1016L236.773 36H232.484L223.93 10.6406H231.008Z" fill="black"/>
</svg>
