<svg id="Pokeapi" xmlns="http://www.w3.org/2000/svg" viewBox="0 0 510.63 204.38"><defs><style>.cls-1{fill:#231f20;}.cls-2{fill:#3761a8;}.cls-3{fill:#feca1b;}</style></defs><title>pokeapi</title><g id="All"><g id="Blue"><path class="cls-1" d="M79.85,204.12c-1.89,0-4.46-.73-6-4.22l-1.76-4c-2.49-5.72-4.79-11-7.44-17q-3-6.75-6-13.47-2.9-6.47-5.77-12.94-2.73-6.18-5.42-12.38-2.53-5.81-5.08-11.61c-1.29-2.93-2.6-5.85-3.91-8.76q-1.47-3.27-2.93-6.54c-.58.29-1.15.57-1.71.83s-1.24.58-1.87.91A7.77,7.77,0,0,1,28.34,116c-3.2,0-4.78-2.76-5.3-3.67-2.52-4.42-5.24-8.86-7.87-13.15-1.47-2.41-2.95-4.82-4.4-7.24l-.89-1.48C7,85.64,4,80.66,1.2,75.66c-2.07-3.71-1.15-7,2.61-9.22,2.17-1.29,4.1-2.51,6-3.7,2.74-1.74,5.34-3.39,8.3-5A118.32,118.32,0,0,1,35.3,49.66c7.56-2.63,16.12-5.61,24.86-6.86a136.9,136.9,0,0,1,20.07-1.05h3.25a66.88,66.88,0,0,1,10,.85A41.45,41.45,0,0,1,104,45.37c5.28,2,9.91,5.24,14.39,8.35l.25.17a39.77,39.77,0,0,1,8.73,8.25c4.9,6.37,11.21,16.18,9.45,27.87-.07.5-.14.94-.2,1.33,7.42-4.1,12.19-4.83,18.57-5.42,1.27-.12,2.46-.17,3.64-.17a42.46,42.46,0,0,1,12,2l.08,0c-.1-2-.16-3.76-.21-5.68a18.79,18.79,0,0,1-4.91,1c-4.72,0-4.82-4.28-4.93-8.81v-.16c-.17-7.05-.39-12.9-.7-18.41-.26-4.93,2.48-6.16,5.55-7.08,6.6-2,11.33-3.45,16.34-5.07l6.83-2.21,6.84-2.22,4.73-1.51c3.3-1,6.71-2.12,10-3.28a9.13,9.13,0,0,1,3-.65,4.06,4.06,0,0,1,3,1.27,5.82,5.82,0,0,1,1.23,4.46c-.09,1.42-.15,2.86-.2,4.3l4.2-8.11a4.41,4.41,0,0,1,3.94-2.72,5.28,5.28,0,0,1,3.66,1.83l.24.23c1.37,1.18,2.65,2.44,3.88,3.66,1,1,1.95,1.93,2.94,2.82,4.63,4.16,9.38,8.36,14,12.42l3.81,3.38c1.27,1.13,3.18,2.82,3.77,3a21.16,21.16,0,0,0,3-1.77l1.68-1.08a52.06,52.06,0,0,1,6-3.38l-.18-.23c-.45-.56-.9-1.13-1.38-1.69l-.4-.45c-3.45-4-3.42-5.66.21-9.64l.33-.36c2.87-3.17,5.7-6.51,8.43-9.75q2.15-2.54,4.31-5.07,2.38-2.76,4.78-5.5c2.43-2.8,4.87-5.59,7.27-8.42,2.7-3.18,5.41-6.48,8.29-10.1a5.9,5.9,0,0,1,4.56-2.4,4.94,4.94,0,0,1,4.25,2.44c2.89,4.71,5.32,8.6,7.66,12.25,1.71,2.68,3.54,5.35,5.31,7.93,1,1.52,2.08,3,3.11,4.57s2,2.66,2.89,4.07a4.46,4.46,0,0,1,.6,3.57,5.32,5.32,0,0,1-2.56,3.25c-3.66,2-7.4,3.88-11,5.72-3,1.52-6,3.07-9,4.66,6.38,1.33,12,4.25,17,7,3.54,2,6.25,5,8.88,8,.73.83,1.46,1.65,2.21,2.44a26.61,26.61,0,0,1,4.15,6.09L341.36,66c2.07-4.21,4.24-8.42,6.35-12.51,1.67-3.23,3.33-6.46,5-9.71,1.42-2.83,2.81-5.74,4.16-8.56s2.59-5.4,3.92-8.09c2.32-4.67,4.68-9.2,6.89-13.39,1.14-2.12,2.55-3.19,4.22-3.19H372c2.79,0,3.88,2.7,4.29,3.69l.07.17q2,4.83,4,9.7c1.62,3.91,3.23,7.82,4.88,11.71A42.36,42.36,0,0,0,391,35c3-.67,6.1-1.4,9.07-2.11,4-1,8.2-1.95,12.35-2.81A71.44,71.44,0,0,1,422.66,29c4.56-.28,9-.4,13.22-.49h1.17a57.45,57.45,0,0,1,25.2,5.88l.34.19,1.17.75a33.57,33.57,0,0,1,3.34,2.3c1.11-4.92,3.47-11,9.63-15.27a15.14,15.14,0,0,1,4-2,19.28,19.28,0,0,1,6.51-1.07,23.33,23.33,0,0,1,14.91,5.31c4.45,3.85,8.88,8.89,7.92,17.08-.39,3.28-.85,7.2-3.09,10.57a4.67,4.67,0,0,1,1.11,3.66c-.48,3.78-1,7.54-1.55,11.18-.5,3.44-1,7-1.46,10.49-.24,1.89-.35,3.8-.46,5.82-.08,1.44-.17,2.94-.3,4.43-.75,8-1.55,16.55-2.46,25.07-.5,4.62-1,9.31-1.58,13.84-.39,3.31-.78,6.61-1.15,9.92-.14,1.24-.24,2.5-.35,3.76-.12,1.42-.24,2.84-.4,4.25a5.42,5.42,0,0,1-5.49,5h0l-.59,0-8.85-.76c-8.18-.7-15.91-1.36-24.54-2.3a5.09,5.09,0,0,1-3.57-1.9,5.87,5.87,0,0,1-1-4.56c1-7.09,2-14,3-20.58.83-5.63,1.69-11.44,2.52-17.41q.1-.74.21-1.48a37.37,37.37,0,0,0,.59-7.32c-4.72.58-6.22,1.53-9.35,3.85l-.6.44c-2.29,1.7-4.11,3-6.07,4.65h0c.79,4.4,1.65,8.87,2.47,13.19.78,4.08,1.56,8.17,2.31,12.26a49.51,49.51,0,0,1,.85,8.89,7.08,7.08,0,0,1-3.38,5.45c-5.73,3.4-10.24,5.93-14.59,8.17l0,.09c2.45,5.46,4.85,10.9,7.29,16.46.67,1.52,1.67,3.81.47,5.88s-3.8,2.37-5.68,2.57c-11.73,1.24-21.58,2.26-33.31,3.47-.38,0-.74.06-1.08.06A6.35,6.35,0,0,1,393.8,175c-1.78-3.91-3.46-7.91-5.09-11.78q-1.1-2.62-2.22-5.24l-12.16-28.41-1.25-2.94c-1.31-3.09-2.66-6.28-4-9.38l-.19-.44-.2.4c-3.14,6.35-6.2,12.88-9.16,19.2q-1.82,3.89-3.65,7.78Q355,146.11,354,148c-1.47,3.07-3,6.24-4.33,9.39a10.42,10.42,0,0,1-10.07,6.77c-7.86.18-15.71.42-23,.65-3.7.12-6.69.24-9.88.37l-5.87.23h-.26a6.11,6.11,0,0,1-4-1.4q0,3.84,0,7.68c0,5.15-3.08,5.71-4.4,5.71a7.69,7.69,0,0,1-3.39-1c-3.36-1.64-6.74-3.35-10-5l-2.9-1.46-5.76-2.92c-3.2-1.62-6.39-3.24-9.6-4.84q-7.19-3.58-14.4-7.14l-10.51-5.2q-3.53-1.75-7-3.54t-6.9-3.47c0,2.93,0,5.8,0,8.68,0,5.35,0,10.88.07,16.32,0,4.87-3.17,5.82-5.6,6.11-6.16.73-12.43,1.63-18.48,2.51l-8.17,1.17-.59.08c-.57.08-.57.08-1,.12l-2.56.24c-.36,0-.69.05-1,.05-3.39,0-5.36-1.91-5.88-5.67-.35-2.47-.58-4.55-.83-6.75l0-.28a46.42,46.42,0,0,1-12.75,7,39.64,39.64,0,0,1-11.31,2.71c-1.77.12-3.41.17-5,.17a49.39,49.39,0,0,1-9.65-.86,34,34,0,0,1-17.83-9.67c-6-6.34-9-10.73-11.14-20.1a3,3,0,0,1-.06-.34c-.25-2.29-.36-4.56-.42-6.75-2,2.15-1.47,4.37-.32,8.45.17.61.34,1.23.5,1.85q2.76,10.66,5.53,21.33l3.14,12.11a18.28,18.28,0,0,1,.37,1.82c1.1,7.12.19,8.66-6.46,11-4.79,1.71-9.7,3.26-14.46,4.75l-5,1.57c-3.74,1.2-6.22,2-10,3.13A10,10,0,0,1,79.85,204.12ZM41,92.85a4.74,4.74,0,0,1,2.14.48c2.38,1.21,3.39,3.8,4.27,6.09.22.57.43,1.13.67,1.64.67,1.47,1.29,3,1.88,4.42s1.25,3,1.93,4.5c1.2,2.58,2.46,5.19,3.68,7.71,1.69,3.5,3.45,7.12,5.07,10.75,1.91,4.29,3.76,8.68,5.55,12.92,1.51,3.59,3.07,7.29,4.66,10.91q3.75,8.55,7.57,17.07,3.68,8.25,7.33,16.51c3-1.1,6.08-2.15,9-3.16l3.3-1.13L99.8,181l1.13-.38c-.1-.44-.24-.92-.33-1.25s-.23-.84-.31-1.19l-1-4.27c-1-4.5-2.12-9.16-3.25-13.71-.83-3.33-1.68-6.65-2.54-10-1.17-4.56-2.39-9.28-3.51-13.95a6.24,6.24,0,0,1,2.35-6c10.52-7.21,17.76-14.68,22.76-23.49s6.47-17.15,4.38-25.28c-2.64-10.28-10.42-15.76-21.29-20.83-4.68-2.14-4.82-2.18-11-2.72H85.46c-2.36,0-5.92,0-7.57.08h-.58c-12.71,0-28.82,3.79-44.2,10.41a87.36,87.36,0,0,0-9.42,5c-1.08.63-2.17,1.27-3.26,1.89,4.1,6.71,7.89,13.46,11.06,19.17A11.47,11.47,0,0,0,32.42,96a11.33,11.33,0,0,0,1.67-.64c.41-.19.86-.41,1.32-.64C37.23,93.8,39.13,92.85,41,92.85Zm323,8.36h.36c3.65.31,7.25,1,10.74,1.59l.78.14a5.89,5.89,0,0,1,3.81,2.63,54.88,54.88,0,0,1,3.12,6.13q2.39,5.69,4.73,11.38c2,4.81,4,9.78,6.1,14.64,1.66,3.92,3.37,7.82,5.07,11.71,2.06,4.72,4.19,9.6,6.22,14.44l.07.16c5.94-.69,11.9-1.3,16.43-1.75l.43,0-.34-.84c-.32-.8-.7-1.73-1.11-2.83-3.84-10.09-8.1-20.17-12.12-29.63-.55-1.3-1.06-2.61-1.55-3.88s-1-2.64-1.57-3.92q-1.84-4.27-3.72-8.52c-1.89-4.31-3.85-8.76-5.7-13.19-2.15-5.13-4.26-10.36-6.3-15.43q-2.21-5.5-4.46-11-3.24-7.85-6.52-15.69-2.71-6.5-5.41-13c-.52-1.25-1-2.5-1.53-3.76l-.57-1.41c-1,2-2,4-3,5.9l-1.29,2.59q-4.38,8.73-8.75,17.45l-7.85,15.66q-4.81,9.61-9.65,19.2a3.63,3.63,0,0,0-.29.71,3,3,0,0,0,.48.4l.14.1a9.48,9.48,0,0,1,4,6.89,9.77,9.77,0,0,1-2.74,7.77l-12.68,12a3,3,0,0,1-.33.27c-1.48,1.05-3.54,2.62-4.35,4.09-2.09,3.84-4,7.91-5.87,11.84-1,2.13-2,4.31-3.11,6.48l3.9-.18c5.36-.24,11.43-.51,17.35-.91a2.09,2.09,0,0,0,.77-.58c1.74-3.33,3.37-6.87,4.95-10.29l1.23-2.68,4-8.57c3.41-7.41,6.94-15.06,10.51-22.56A6.9,6.9,0,0,1,364,101.21Zm-182.89-38c.89,0,3.83.34,4.12,4.71.2,3,.45,6,.69,9,.43,5.24.87,10.65,1.07,16,.12,3.22,1.23,5.27,3.52,8.39.2.27.41.52.63.77a12.8,12.8,0,0,1,1.5,2.06c7.19,12.76,7.72,26.1,1.58,39.64-1.44,3.18-1.94,6.94-1.6,11.84.11,1.47.18,2.77.25,4.11,0,.43,0,.87.07,1.32a96,96,0,0,1,13.35-2.25l.28,0c-.08-4-.07-8-.05-11.83q0-2.1,0-4.19a2.89,2.89,0,0,1,0-.54V126.63c0-2.58,0-6.48,3.83-6.48,1.28,0,2.46.6,4.42,1.59L225,127c5.61,2.86,11.42,5.81,17.15,8.67,3.35,1.67,6.81,3.3,10.16,4.88q2.92,1.37,5.83,2.76c2.54,1.22,5.12,2.47,7.64,3.77q5.45,2.82,10.87,5.67l4.12,2.16q0-1.94,0-3.88c0-3.15,0-6.39-.06-9.59-1.53-.48-3.11-.92-4.65-1.35-2.64-.74-5.37-1.5-8-2.5-8-3-14.33-8-18.32-14.45-2.25-3.62-5.34-5.09-9.46-6.78-3.92-1.61-8-3.16-11.87-4.65-2.79-1.06-5.58-2.13-8.36-3.23a3.75,3.75,0,0,1-1.47-6.38c3.68-4.07,7.15-7.81,10.6-11.41q3.58-3.75,7.19-7.47c3.45-3.57,7-7.26,10.48-10.93-1.19-1.17-2.42-2.29-3.71-3.45-1-1-2.1-1.9-3.12-2.87L238,64c-2.84-2.69-5.78-5.48-8.5-8.44l-.28-.31L212.52,78.78l-.23.32c-.49.68-1,1.36-1.5,2A4.86,4.86,0,0,1,205,82.55a4.19,4.19,0,0,1-2.51-3.6l-.19-2.72c-.48-7-1-14.23-1.41-21.38-3.66,1.08-7.33,2.14-11,3.19-4.46,1.28-9.07,2.6-13.59,4a11.88,11.88,0,0,0,.34,2.65l.74-.34,1-.46A6.65,6.65,0,0,1,181.1,63.19ZM158.91,99.79a31.51,31.51,0,0,0-18.77,6c-8.34,5.9-13.41,13.25-15.51,22.48-1.87,8.31-.67,15.57,3.59,21.58,4.59,6.47,11.21,9.76,19.67,9.76.86,0,1.76,0,2.65-.1,10.78-.83,19.27-5.65,25.93-14.73,4.84-6.58,7.16-13.29,7.11-20.51,0,0,0-.07,0-.1a14.78,14.78,0,0,0-.12-1.62c-.05-.51-.11-1-.13-1.52-.16-.76-.29-1.42-.41-2a21.14,21.14,0,0,0-2.33-7.09c-3.33-6.61-8.56-10.53-15.53-11.65A39.05,39.05,0,0,0,158.91,99.79Zm137.57,42.3c0,.13,0,.28,0,.47.17,3.38.13,6.8.1,10.1,0,1.13,0,2.26,0,3.39,2.23-4.26,4.11-8.21,6.09-12.37l1.65-3.46-.18.05a55.33,55.33,0,0,1-6.45,1.56C297.12,141.94,296.74,142,296.48,142.09ZM468.7,134.4c4,.28,8.05.72,12.32,1.18l5.42.58c0-.22.1-1.08.1-1.08.08-.83.11-1.66.15-2.55s.08-2,.18-3l.6-6.24c1.79-18.51,3.64-37.62,5.54-56.46l-.44.13a168.06,168.06,0,0,1-17.41,4.45c-3.36.6-4.53,1.6-5.73,4.84a17.82,17.82,0,0,0-.64,2.1l-.1.35a8.63,8.63,0,0,1,1.72-.19A4.57,4.57,0,0,1,474,80c1.32,1.51,1.25,3.47,1,5.18-.47,3.46-.89,7-1.29,10.45-.33,2.85-.67,5.7-1,8.55-1.37,10.59-2.62,20.15-4,30l0,.23Zm-64-69.59c3,0,3.7,3,4,4.08.84,3.55,1.76,7.14,2.65,10.62.65,2.54,1.3,5.08,1.93,7.63.76,3.24,1.36,5.81,1.88,8.08,1,4.35,1.74,7.5,2.82,11.81l0,.1c1.95,9.13,4.28,18.88,8.11,28.43l8.49-3.13a3.11,3.11,0,0,0,.59-.3,3,3,0,0,0,0-.33c-.48-3-.93-6-1.38-9-.92-6.08-1.86-12.36-3-18.48l-.16-.84c-1.29-6.86-.76-8.14,5.24-12.45l.23-.15c1.25-1,2.53-2,3.8-2.94a102.72,102.72,0,0,0,8.28-6.78A147.21,147.21,0,0,0,460,68.39c3.13-3.72,5-6.72,4.37-10.16a15.09,15.09,0,0,0-7.63-10.81c-6.78-4-14.55-4.45-24.37-5-13.91.4-23.36,2.25-36.47,5.75q.59,2.15,1.19,4.3c1.22,4.38,2.48,8.9,3.56,13.42l.2.85.43-.37A5.38,5.38,0,0,1,404.72,64.81ZM294,63.83a39.31,39.31,0,0,0-22.32,6.74c-8.5,5.61-13.25,12.78-14.52,21.91-1.59,11.32,2.39,20.9,11.5,27.7,5.11,3.81,11.53,5.75,19.08,5.75l1.16,0c14.93-.36,27.86-5.42,38.46-15-1.94-1.86-3.94-3.72-5.89-5.53-1.67-1.55-3.35-3.11-5-4.68a5,5,0,0,0-.51-.44,5.62,5.62,0,0,0-.69.59c-4.44,4.32-11.29,7.69-18.33,9a12.64,12.64,0,0,1-2.44.29c-2.85,0-3.81-1.71-4.1-2.45l-.07-.21c-.72-2.4,1.22-4.36,2.15-5.3l.11-.11,1.52-1.66c4.7-5.12,8.75-9.55,13.71-14.82,1.72-1.82,3.46-3.62,5.21-5.41,2.07-2.12,4.2-4.32,6.25-6.52-4.38-4.61-8.92-7.38-13.86-8.48A52.72,52.72,0,0,0,294,63.83Zm-53.44,37,.94.29-.16-1.26C241,100.16,240.75,100.5,240.51,100.81Zm87.25-11.58.38.34c.44.36.89.72,1.34,1.06q1.27-2.79,2.58-5.56c-1.24,1.24-2.55,2.5-4,3.82C328,89,327.85,89.13,327.76,89.23ZM487.2,32.63c-5.61,0-6.75,5.84-7,8.35s.25,4.46,1.42,5.79c1.79,2,5.09,2.54,7.54,2.62h.38c4.13,0,7-4.48,7.34-8.63a6.37,6.37,0,0,0-2-4.17c-2.06-2.29-5.06-3.88-7.47-4Zm-184.33-10q-2.91,3.45-5.79,6.92c-3.58,4.29-7.25,8.7-11,13l23.53-12.25-6.71-7.74Z"/><path class="cls-1" d="M88.85,125.6a4.29,4.29,0,0,1-4-3c-1.92-6-3.79-12-5.66-17.94q-2.24-7.14-4.5-14.28c-1.54-4.84,1.5-6.76,3.45-7.47A43.67,43.67,0,0,1,88.8,80.18c.69-.06,1.33-.09,1.95-.09a17.06,17.06,0,0,1,15.13,8.51,21.3,21.3,0,0,1,.76,20.29c-3.3,6.24-8.2,10.11-12.95,13.87-.87.69-1.75,1.38-2.61,2.09l-.24.17a3.61,3.61,0,0,1-2,.58Zm1.78-31.12c.93,3.43,2,6.87,3.07,10.24a6.69,6.69,0,0,0,1.49-4.21C94.72,96.83,93.19,94.8,90.63,94.48Z"/><path class="cls-1" d="M375.38,95.13l-.36,0-3.1-.38c-2.58-.32-4.8-.6-7-.79-1.33-.14-3.24-.35-4.27-2.06s-.29-3.51.14-4.59c2-4.87,3.71-9.15,5.64-13.91l.62-1.52c1-2.47,2.69-2.84,3.64-2.84s2.8.3,3.59,3.1l.06.2,4.49,17.3a4.5,4.5,0,0,1-.36,4.09A3.64,3.64,0,0,1,375.38,95.13Z"/><path class="cls-1" d="M429.74,84.66c-1,0-3.26-.4-3.73-4.07-.27-2.11-.57-4.22-.88-6.33s-.66-4.57-.95-6.87a5.27,5.27,0,0,1,3.76-5.75l1.14-.41a22.85,22.85,0,0,1,7.14-1.7h.16a15.82,15.82,0,0,1,4.86.71l.76.21c1.23.29,5,1.19,6,4.37s-1.67,5.86-2.52,6.76c-2.77,2.89-5.77,5.56-8.67,8.15-1.28,1.14-2.55,2.28-3.81,3.43A4.74,4.74,0,0,1,429.74,84.66Z"/><path class="cls-1" d="M278.83,109.25a4.42,4.42,0,0,1-2.79-.87,19.71,19.71,0,0,1-7.4-18.53C270,79.49,278.23,72,288.22,72q.59,0,1.19,0a18.86,18.86,0,0,1,3.15.45l.13,0,2.2.67a42.74,42.74,0,0,1,6.55,2.4,5.56,5.56,0,0,1,3.42,3.91,5.88,5.88,0,0,1-1.76,5.27q-8,8.87-15.94,17.78c-.54.6-1.06,1.22-1.58,1.84-1,1.21-2.08,2.46-3.27,3.63a5.06,5.06,0,0,1-3.47,1.25ZM287.2,84A8.7,8.7,0,0,0,281.1,91l3.58-4.05Z"/><path class="cls-1" d="M156,137.5a17.67,17.67,0,0,1-14.35-6.88c-3.49-4.65-4.44-10.92-2.61-17.21,2-6.67,9-12.1,15.66-12.1q.49,0,1,0a8.88,8.88,0,0,1,2.15.5,3,3,0,0,1,1.06,5.05l-.36.33-.76.69c-2.24,2-3.17,3.82-3.17,6.15s3.53,5.24,6.52,5.27h0c3.14,0,6-3.2,6.87-6.17.1-.33.19-.68.27-1s.15-.58.23-.87a3,3,0,0,1,5-1.35l.08.08a12,12,0,0,1,1.71,2,3,3,0,0,1,.25.44c2.26,4.87,1.89,10.11-1.09,15.13-3.95,6.7-9.88,10-18.15,10Z"/></g><g id="Yellow"><path class="cls-1" d="M404.62,171.08c-2.85,0-4.93-1.51-6.17-4.48-2-4.7-4-9.46-6.05-14.06l-.12-.28c-1.59-3.64-3.39-7.76-5.1-11.78-2.08-4.9-4.14-9.89-6.13-14.71q-2.34-5.67-4.71-11.33a45.62,45.62,0,0,0-2.36-4.71l-.14,0c-3.11-.56-6.29-1.13-9.38-1.44-3.5,7.35-6.93,14.79-10.25,22q-2,4.29-4,8.59L349,141.52c-1.62,3.52-3.28,7.14-5.12,10.65a8.53,8.53,0,0,1-6.37,4.28c-6,.41-12.18.68-17.59.93l-.47,0-4.94.23-1.89,0c-1,0-3.46,0-4.8-2.19s-.27-4.32.37-5.59c1.49-2.91,2.9-5.9,4.27-8.79,1.9-4,3.86-8.16,6.05-12.19,1.44-2.63,4-4.73,6.2-6.28l12.35-11.73a2.75,2.75,0,0,0,.72-2.16,2.49,2.49,0,0,0-1-1.82l-.13-.09c-3.56-2.52-4.42-6.07-2.42-10q4.84-9.56,9.63-19.17L352,61.4q4.23-8.44,8.46-16.88l1.29-2.57c1.68-3.37,3.4-6.82,5.22-10.18a4.75,4.75,0,0,1,8.8.72c.78,1.79,1.54,3.67,2.27,5.5.49,1.23,1,2.46,1.5,3.69q2.69,6.51,5.41,13,3.28,7.85,6.53,15.72c1.47,3.58,2.92,7.16,4.36,10.75l.11.28c1.93,4.78,4.11,10.19,6.27,15.34,1.85,4.42,3.87,9,5.65,13.07l.14.31c1.21,2.75,2.41,5.5,3.6,8.25.6,1.4,1.15,2.81,1.67,4.17s1,2.48,1.45,3.65c4.06,9.53,8.35,19.69,12.23,29.88.4,1.05.76,1.95,1.07,2.71,1.24,3.09,2.14,5.32.73,7.64s-3.7,2.53-6.62,2.82c-4.55.46-10.53,1.07-16.43,1.75A9.13,9.13,0,0,1,404.62,171.08ZM368.35,87.24l2.7.32-1.1-4.26Z"/><path class="cls-1" d="M287.69,132.93c-9.09,0-16.92-2.4-23.27-7.14-11.28-8.43-16.2-20.28-14.24-34.28,1.54-11.08,7.47-20.1,17.6-26.78A46.1,46.1,0,0,1,294,56.83a59.72,59.72,0,0,1,12.94,1.5c6.6,1.46,12.5,5.12,18,11.17a6.65,6.65,0,0,1,.06,8.21c-2.32,2.54-4.7,5-7,7.33l-.08.08c-1.69,1.74-3.39,3.48-5,5.24-3.33,3.55-6.26,6.71-9.25,10a25.32,25.32,0,0,0,6.71-4.53,8.12,8.12,0,0,1,5.59-2.67,7.73,7.73,0,0,1,5.32,2.46c1.59,1.51,3.2,3,4.81,4.51l.13.12c2.36,2.19,4.79,4.45,7.14,6.73a5.51,5.51,0,0,1,0,7.89c-12.13,11.57-27,17.64-44.29,18.06l-1.33,0ZM288.22,79c-6.43,0-11.75,4.95-12.64,11.76a12.64,12.64,0,0,0,3.29,10.7c.46-.52.92-1.06,1.37-1.6.58-.69,1.14-1.34,1.71-2q7.45-8.34,14.92-16.64a39.74,39.74,0,0,0-4-1.33l-2.19-.66a13.45,13.45,0,0,0-1.76-.22Z"/><path class="cls-1" d="M191.69,168.36c-1.25,0-5.37-.45-5.71-6.21,0-.69-.07-1.35-.11-2-.07-1.32-.13-2.57-.24-4-.43-6.12.27-11,2.2-15.23,5.17-11.4,4.73-22.61-1.31-33.33a7.54,7.54,0,0,0-.74-1c-.32-.38-.64-.76-.93-1.16-2.94-4-4.68-7.3-4.87-12.26-.2-5.22-.63-10.56-1.05-15.72-.17-2-.33-4.05-.48-6a8.06,8.06,0,0,1-2.71.52,5.34,5.34,0,0,1-4.69-2.61l-.11-.19a16.69,16.69,0,0,1-1.64-7.89c0-1.33.45-4.61,4.87-6,4.61-1.38,9.27-2.72,13.79-4,4.18-1.2,8.3-2.38,12.4-3.6a7.89,7.89,0,0,1,2.28-.38c1.13,0,4.86.41,5.16,5.65.37,6.19.79,12.47,1.21,18.62l14.25-20.1c1.36-1.92,2.9-4.11,5.75-4.11,2.45,0,3.92,1.59,5.61,3.44,2.55,2.78,5.39,5.47,8.14,8.07l2.06,2c1,.93,2,1.84,3,2.75,1.62,1.47,3.3,3,4.9,4.63,2.07,2.07,1.67,6.19-.13,8.1-3.69,3.92-7.48,7.84-11.15,11.64-2.46,2.55-4.85,5-7.23,7.51s-5,5.24-7.53,8l4.19,1.6c4,1.51,8,3.07,12,4.71,4.81,2,9.4,4.19,12.74,9.56,3.18,5.1,8.32,9.11,14.87,11.6,2.35.89,4.92,1.61,7.41,2.3,1.77.49,3.59,1,5.4,1.58a6.54,6.54,0,0,1,4.37,5.58c.08,3.51.08,7.08.08,10.53,0,2.14,0,4.29,0,6.43a5.72,5.72,0,0,1-1.51,4.31,4.7,4.7,0,0,1-3.38,1.39,6.85,6.85,0,0,1-3.16-.89l-6.31-3.3c-3.63-1.91-7.24-3.8-10.86-5.67-2.45-1.26-5-2.48-7.41-3.66-2-.94-3.89-1.85-5.82-2.76l-.11-.05c-3.35-1.58-6.81-3.21-10.19-4.89-5.71-2.85-11.48-5.79-17.06-8.63l-.14-.07L213.48,129v12.69a3.9,3.9,0,0,1,0,.62q0,2.38,0,4.76c0,3.86,0,7.85.05,11.76.1,4.2-2.11,6.58-6.55,7a88.78,88.78,0,0,0-12.5,2.11A11.44,11.44,0,0,1,191.69,168.36Z"/><path class="cls-1" d="M85,193.14c-1.37,0-3.9-.51-5.41-3.92q-3.67-8.36-7.4-16.67l-.16-.36q-3.81-8.54-7.59-17.11c-1.6-3.65-3.17-7.37-4.69-11L59.7,144c-1.76-4.18-3.58-8.49-5.45-12.68-1.57-3.52-3.29-7.07-5-10.51-1.25-2.58-2.52-5.21-3.74-7.84-.75-1.6-1.41-3.22-2.06-4.8-.57-1.39-1.15-2.82-1.77-4.16-.29-.64-.56-1.33-.83-2-.18-.47-.46-1.18-.72-1.75-.56.25-1.2.57-1.63.78s-1.08.54-1.58.77A11.67,11.67,0,0,1,32.17,103c-4,0-5.81-3.34-6.8-5.14C22.23,92.26,18.48,85.6,14.45,79a7.13,7.13,0,0,1-1.17-5.58,6.36,6.36,0,0,1,3.3-3.94c1.19-.67,2.38-1.36,3.57-2.06A93.87,93.87,0,0,1,30.34,62c16.46-7.08,33.13-11,47-11h.37C79.46,51,82.9,51,85.42,51h2.11c7.22.62,8.11.84,13.6,3.35,11,5.12,21.62,11.73,25.14,25.44,2.52,9.84.82,20.09-5.08,30.48-5.43,9.56-13.12,17.61-24.17,25.3,1,4.28,2.15,8.59,3.22,12.78l0,.14c.86,3.34,1.72,6.68,2.55,10,1.14,4.58,2.21,9.23,3.25,13.73l1,4.37c.06.26.14.56.23.88.61,2.23,2,7.34-2.33,9.09-1.44.57-2.06.78-3,1.09l-1.62.54-3.3,1.13c-3.14,1.08-6.36,2.17-9.47,3.32A7.38,7.38,0,0,1,85,193.14ZM81.58,89.08q2.13,6.72,4.24,13.46,2.2,7,4.42,14c4.18-3.32,7.78-6.34,10.22-11a14.28,14.28,0,0,0-.57-13.4,10.16,10.16,0,0,0-9.14-5.12c-.41,0-.84,0-1.27.06A34.6,34.6,0,0,0,81.58,89.08Z"/><path class="cls-1" d="M147.9,166.64c-10.7,0-19.48-4.39-25.38-12.71-5.38-7.59-7-17-4.71-27.18,2.5-11,8.48-19.7,18.29-26.65a38.8,38.8,0,0,1,22.81-7.32,46,46,0,0,1,7.29.6c9.18,1.47,16.33,6.8,20.67,15.41a27.87,27.87,0,0,1,2.95,8.88c.14.7.28,1.41.45,2.22a4,4,0,0,1,.08.82c0,.22.05.72.1,1.13a19.81,19.81,0,0,1,.15,2.49c.05,8.75-2.72,16.8-8.47,24.62-7.84,10.67-18.28,16.58-31,17.56C150,166.6,148.94,166.64,147.9,166.64Zm-.18-54.72a9.21,9.21,0,0,0-2,3.45c-1.21,4.15-.67,8.18,1.49,11A10.61,10.61,0,0,0,156,130.5h.3c5.72,0,9.45-2,12.11-6.51v0a12.5,12.5,0,0,1-7.23,2.38H161c-6.26-.07-13.49-5.46-13.46-12.3A14.49,14.49,0,0,1,147.73,111.92Z"/><path class="cls-1" d="M282.91,50.91a5.12,5.12,0,0,1-3.58-1.29c-3-2.74-3.18-6.32-.54-9.34,4.36-5,8.69-10.16,12.87-15.18l.16-.19q2.82-3.38,5.65-6.75c.11-.14.24-.3.39-.45a6.68,6.68,0,0,1,5-2.28,6.78,6.78,0,0,1,5.1,2.32L315.15,26a6.7,6.7,0,0,1,1.11,1.76l.05.13a6.42,6.42,0,0,1-2.93,8.36L287,50a5.89,5.89,0,0,1-1.29.51A11.11,11.11,0,0,1,282.91,50.91Z"/><path class="cls-1" d="M426,142.6a6.74,6.74,0,0,1-6.29-4.23c-4.07-10.08-6.5-20.25-8.53-29.73-1.08-4.27-1.8-7.41-2.81-11.74l0-.11c-.52-2.26-1.12-4.83-1.87-8-.59-2.39-1.21-4.82-1.83-7.25l-.11-.45c-.58-2.28-1.18-4.61-1.76-7a5.56,5.56,0,0,1-3.11,1c-4,0-4.88-3.71-5.74-7.29l-.07-.3c-1.06-4.41-2.3-8.87-3.5-13.19q-.68-2.43-1.35-4.87l-.09-.32a5.92,5.92,0,0,1,.36-5,5.63,5.63,0,0,1,4-2.49c14.11-3.8,24.05-5.8,39.08-6.22h.25c10.88.59,19.47,1.06,27.76,6a22.09,22.09,0,0,1,11,15.67c1.24,7.31-3.41,12.85-5.91,15.82a153.66,153.66,0,0,1-12.4,13.33,109.37,109.37,0,0,1-8.83,7.24l-.11.09c-1.21.92-2.42,1.85-3.61,2.79a4.72,4.72,0,0,1-.53.38A18,18,0,0,0,437,99a19.67,19.67,0,0,0,.47,3.15l.16.85c1.17,6.24,2.12,12.58,3,18.72.45,3,.9,6,1.38,9,.42,2.68-.08,6.29-4.93,8.25l-8.8,3.24A6.77,6.77,0,0,1,426,142.6Zm5.33-74.73c.24,1.81.5,3.62.76,5.38l.16,1.13c2.62-2.34,5.31-4.74,7.74-7.24l-.65-.18a8.93,8.93,0,0,0-2.83-.44,16.57,16.57,0,0,0-5,1.28Z"/><path class="cls-1" d="M487,143.2c-.36,0-.77,0-1.22-.06l-5.57-.59c-4.19-.46-8.15-.89-12-1.16a7.09,7.09,0,0,1-5.29-2.37c-1.72-2.13-1.33-4.83-1.19-5.85,1.41-9.78,2.66-19.31,4-29.87.36-2.74.68-5.48,1-8.22l0-.24c.32-2.75.68-5.8,1.07-8.83l-.55,0a6.12,6.12,0,0,1-4.7-2.26,4,4,0,0,1-.86-1.61,7.77,7.77,0,0,1,.11-5.07c.06-.17.12-.36.18-.58a23.35,23.35,0,0,1,.83-2.69c2.05-5.56,5.25-8.25,11.05-9.3a162.55,162.55,0,0,0,16.65-4.28l2.37-.7a8.77,8.77,0,0,1,2.51-.44A4.7,4.7,0,0,1,499,60.64a6.05,6.05,0,0,1,1.17,4.92c-1.94,19.3-3.85,38.94-5.69,57.94l-.65,6.71c-.08.83-.12,1.73-.16,2.6s-.08,1.9-.17,2.91l0,.41c-.18,2.11-.61,7.08-6.42,7.08Z"/><path class="cls-1" d="M489.57,56.4l-.69,0c-5.48-.17-9.7-1.84-12.47-5-2.5-2.83-3.57-6.56-3.15-11.07.82-8.94,6.29-14.71,13.95-14.71h.5c4.33.14,9.1,2.55,12.45,6.28,2.65,3,4,6.28,3.75,9.38C503.33,48.72,497.81,56.4,489.57,56.4Z"/><path class="cls-1" d="M404.62,170.08a5.54,5.54,0,0,1-5.25-3.87c-2-4.8-4.13-9.66-6.18-14.36-1.71-3.92-3.42-7.83-5.09-11.77-2.08-4.89-4.14-9.87-6.13-14.7q-2.34-5.68-4.71-11.34a48.06,48.06,0,0,0-2.65-5.22l-.6-.11c-3.26-.59-6.63-1.19-9.9-1.49a1.87,1.87,0,0,0-.41.27c-3.54,7.42-7,15-10.41,22.35q-2,4.3-4,8.59l-1.23,2.66c-1.61,3.5-3.27,7.11-5.1,10.6a7.56,7.56,0,0,1-5.56,3.75c-6,.41-12.17.68-17.59.93l-5.5.25-1.73,0c-.94,0-2.9,0-4-1.71s-.21-3.39.41-4.61c1.48-2.9,2.9-5.9,4.28-8.81,1.9-4,3.86-8.15,6-12.14,1.34-2.45,3.75-4.4,6-6l12.4-11.78a3.78,3.78,0,0,0,1-3,3.45,3.45,0,0,0-1.47-2.55l-.06,0c-2.24-1.54-4.43-4.32-2.16-8.78q4.84-9.57,9.64-19.18l7.87-15.7q4.36-8.7,8.72-17.4l1.29-2.57c1.66-3.34,3.38-6.79,5.21-10.15a3.75,3.75,0,0,1,7,.55c.8,1.85,1.56,3.74,2.29,5.57.5,1.23,1,2.47,1.5,3.7q2.69,6.51,5.41,13,3.27,7.85,6.53,15.71,2.26,5.5,4.47,11c2,5,4.14,10.26,6.27,15.35,1.83,4.38,3.77,8.81,5.66,13.09,1.25,2.85,2.5,5.7,3.73,8.55.59,1.38,1.13,2.78,1.66,4.13s1,2.49,1.47,3.69c4.05,9.51,8.33,19.65,12.21,29.85.4,1.06.76,2,1.07,2.73,1.22,3,1.95,4.85.8,6.75s-3.12,2.07-5.87,2.35c-4.54.45-10.5,1.06-16.44,1.75a8.13,8.13,0,0,1-.93.06Zm-37.69-82c1.72.17,3.49.39,5.46.64l-2.23-8.6C369.08,82.76,368,85.35,366.92,88.1Z"/><path class="cls-1" d="M287.69,131.93c-8.87,0-16.49-2.34-22.67-6.94-11-8.19-15.76-19.72-13.85-33.34,1.5-10.79,7.28-19.57,17.16-26.09A45.74,45.74,0,0,1,294,57.83a58.71,58.71,0,0,1,12.72,1.48c6.39,1.42,12.13,5,17.53,10.87a5.73,5.73,0,0,1,.05,6.87c-2.29,2.5-4.67,4.94-7,7.31-1.72,1.77-3.45,3.54-5.14,5.34-4.42,4.7-8.12,8.73-12.21,13.19A29,29,0,0,0,311,96.52a7.2,7.2,0,0,1,4.89-2.39,6.81,6.81,0,0,1,4.63,2.19c1.64,1.55,3.29,3.09,5,4.63,2.35,2.18,4.77,4.44,7.12,6.72a4.51,4.51,0,0,1,0,6.46C320.68,125.52,306,131.5,289,131.91l-1.31,0ZM288.22,78c-6.94,0-12.67,5.31-13.63,12.63a13.64,13.64,0,0,0,4.31,12.28c.71-.76,1.39-1.57,2.1-2.41.56-.66,1.12-1.32,1.69-2q7.92-8.85,15.85-17.68a37,37,0,0,0-5.37-1.92L291,78.26a13,13,0,0,0-2-.26Z"/><path class="cls-1" d="M191.69,167.36c-1.64,0-4.44-.68-4.71-5.27,0-.69-.07-1.35-.11-2-.07-1.3-.13-2.56-.24-4-.42-5.94.26-10.63,2.12-14.75,5.31-11.71,4.85-23.22-1.35-34.23a7.9,7.9,0,0,0-.85-1.12c-.3-.36-.61-.72-.89-1.1-2.83-3.85-4.5-7-4.68-11.71-.2-5.24-.64-10.59-1.06-15.77-.2-2.47-.4-4.94-.58-7.41a8.86,8.86,0,0,1-3.6,1,4.36,4.36,0,0,1-3.83-2.13l-.11-.19a15.89,15.89,0,0,1-1.49-7.37c0-1.38.52-3.9,4.16-5,4.6-1.38,9.26-2.72,13.78-4,4.14-1.19,8.28-2.38,12.4-3.6a6.92,6.92,0,0,1,2-.34c1.17,0,3.92.46,4.16,4.71.43,7.14.92,14.39,1.4,21.44l15.87-22.4c1.28-1.81,2.6-3.69,4.93-3.69,2,0,3.28,1.37,4.88,3.11,2.58,2.81,5.44,5.52,8.21,8.14l2,1.94c1,.94,2,1.85,3,2.77,1.61,1.46,3.28,3,4.86,4.59s1.32,5.16-.14,6.71c-3.71,3.93-7.52,7.88-11.2,11.7q-3.59,3.72-7.17,7.45c-2.8,2.92-5.6,5.93-8.53,9.14l5.56,2.13c3.94,1.5,8,3.06,12,4.7,4.83,2,9.09,4,12.27,9.16,3.29,5.29,8.61,9.44,15.36,12,2.4.91,4.88,1.6,7.51,2.33,1.75.49,3.56,1,5.34,1.57a5.54,5.54,0,0,1,3.68,4.64c.08,3.5.08,7.06.08,10.51,0,2.15,0,4.29,0,6.44a5,5,0,0,1-1.22,3.59,3.72,3.72,0,0,1-2.67,1.1,5.91,5.91,0,0,1-2.69-.78L273.89,158q-5.42-2.84-10.84-5.66c-2.45-1.26-5-2.49-7.44-3.67-2-.94-3.9-1.85-5.83-2.76-3.38-1.59-6.87-3.24-10.29-4.94-5.75-2.87-11.56-5.83-17.19-8.69l-9.82-5v14.4a2.92,2.92,0,0,1,0,.54q0,2.38,0,4.75c0,3.87,0,7.87.05,11.78.13,5.42-4.23,5.88-5.66,6A89.75,89.75,0,0,0,194.27,167,10.34,10.34,0,0,1,191.69,167.36Z"/><path class="cls-1" d="M85,192.14c-1.38,0-3.28-.58-4.49-3.33q-3.75-8.54-7.56-17t-7.59-17.1c-1.6-3.65-3.17-7.38-4.69-11-1.78-4.21-3.61-8.57-5.5-12.8-1.58-3.54-3.31-7.12-5-10.58-1.23-2.54-2.51-5.17-3.72-7.79-.74-1.58-1.4-3.2-2-4.76s-1.16-2.83-1.78-4.19c-.28-.62-.55-1.29-.81-2a17,17,0,0,0-1.19-2.65,22.57,22.57,0,0,0-2.54,1.15c-.53.27-1.05.53-1.54.75A10.81,10.81,0,0,1,32.17,102c-3.37,0-5-2.89-5.93-4.62-3.14-5.66-6.9-12.34-10.94-19a6.2,6.2,0,0,1-1.06-4.81,5.4,5.4,0,0,1,2.82-3.32c1.2-.67,2.4-1.37,3.59-2.07a93.19,93.19,0,0,1,10.08-5.34C47.07,55.91,63.61,52,77.31,52h.36C79.49,52,82.93,52,85.45,52h2.08c6.83.59,7.62.71,13.18,3.26,10.76,5,21.17,11.48,24.59,24.78,2.46,9.58.78,19.58-5,29.74-5.44,9.57-13.19,17.62-24.38,25.33l0,.08c1.09,4.53,2.27,9.11,3.41,13.55.86,3.34,1.72,6.68,2.55,10,1.14,4.6,2.22,9.28,3.27,13.8l1,4.27c.07.29.16.61.25,1,.62,2.25,1.77,6.44-1.75,7.85-1.41.56-2,.75-3,1.07l-1.61.54-3.3,1.13c-3.12,1.07-6.35,2.17-9.49,3.32a6.45,6.45,0,0,1-2.26.45ZM80.36,88.55q2.27,7.14,4.5,14.3,2.42,7.71,4.86,15.41l.25-.2c4.45-3.52,8.66-6.85,11.37-12a15.32,15.32,0,0,0-.6-14.39,11.12,11.12,0,0,0-10-5.6c-.44,0-.9,0-1.36.06a37.22,37.22,0,0,0-9.05,2.31Z"/><path class="cls-1" d="M147.9,165.64c-10.37,0-18.86-4.25-24.56-12.29-5.21-7.36-6.78-16.48-4.55-26.38,2.4-10.58,8.42-19.35,17.89-26a37.82,37.82,0,0,1,22.23-7.14,45,45,0,0,1,7.13.59c8.85,1.42,15.74,6.56,19.93,14.87a26.79,26.79,0,0,1,2.86,8.63c.13.65.27,1.38.45,2.23a3,3,0,0,1,.06.61c0,.27.05.76.1,1.23a19.16,19.16,0,0,1,.15,2.36c.05,8.55-2.65,16.42-8.27,24.06-7.66,10.42-17.85,16.2-30.31,17.16-1,.08-2.1.12-3.11.12ZM149.57,109a11.63,11.63,0,0,0-4.81,6.07c-1.3,4.45-.7,8.8,1.65,11.93A11.58,11.58,0,0,0,156,131.5h.29c6.12,0,10.12-2.16,13-7a11.93,11.93,0,0,0,1.58-4.17,12.57,12.57,0,0,1-9.67,5H161c-5.66-.06-12.48-5.12-12.45-11.29A12.9,12.9,0,0,1,149.57,109Z"/><path class="cls-1" d="M282.91,49.91a4.15,4.15,0,0,1-2.9-1c-2.57-2.37-2.74-5.34-.46-7.94,4.38-5,8.73-10.21,12.93-15.25q2.88-3.45,5.76-6.89c.1-.13.21-.26.32-.38a5.71,5.71,0,0,1,4.34-2,5.78,5.78,0,0,1,4.35,2l7.15,8.24a5.67,5.67,0,0,1,.94,1.49l.05.13a5.45,5.45,0,0,1-2.47,7.09L286.52,49.1a5,5,0,0,1-1.09.43A10.2,10.2,0,0,1,282.91,49.91Z"/><path class="cls-1" d="M426,141.6a5.75,5.75,0,0,1-5.36-3.6c-4-10-6.46-20.13-8.48-29.56-1.09-4.34-1.82-7.5-2.83-11.86-.52-2.26-1.12-4.83-1.87-8-.62-2.5-1.26-5-1.91-7.55-.72-2.8-1.45-5.67-2.15-8.55a5.91,5.91,0,0,1-3.72,1.68c-3.2,0-3.93-3-4.77-6.52l-.07-.3c-1.06-4.42-2.3-8.89-3.5-13.22q-.68-2.43-1.34-4.87l-.09-.32a5,5,0,0,1,.24-4.23,4.67,4.67,0,0,1,3.27-2c14.11-3.79,24-5.79,38.94-6.21h.25c10.27.57,19.15,1.05,27.22,5.82a21.12,21.12,0,0,1,10.49,15c1.16,6.86-3.3,12.17-5.69,15A153,153,0,0,1,452.26,85.5a109.08,109.08,0,0,1-8.76,7.18c-1.26,1-2.52,1.92-3.75,2.9a4.43,4.43,0,0,1-.49.34A16.5,16.5,0,0,0,436,98.59a15.24,15.24,0,0,0,.48,3.75l.16.85c1.16,6.22,2.12,12.56,3,18.69.45,3,.9,6,1.38,9,.54,3.38-.92,5.79-4.32,7.17L428,141.24a5.77,5.77,0,0,1-2,.36Zm4.23-74.4c.26,2.07.57,4.16.86,6.19.14,1,.29,2,.43,3l1.26-1.13c2.81-2.51,5.72-5.11,8.33-7.83a9,9,0,0,0,.69-.79,9.81,9.81,0,0,0-1.18-.35l-1-.27a9.91,9.91,0,0,0-3.14-.48,17.51,17.51,0,0,0-5.33,1.34Z"/><path class="cls-1" d="M487,142.2c-.33,0-.71,0-1.12-.06l-5.56-.59c-4.2-.46-8.17-.89-12.08-1.16a6.16,6.16,0,0,1-4.58-2,6.35,6.35,0,0,1-1-5.08c1.41-9.78,2.66-19.32,4-29.88.37-2.82.7-5.65,1-8.48.39-3.33.79-6.77,1.25-10.16a7,7,0,0,1-1.72.24,5.16,5.16,0,0,1-4-1.92,3,3,0,0,1-.65-1.2,6.82,6.82,0,0,1,.1-4.51c.06-.18.13-.38.19-.62a22.34,22.34,0,0,1,.8-2.61c1.94-5.25,4.82-7.68,10.29-8.66a163.42,163.42,0,0,0,16.78-4.31l2.35-.69a7.85,7.85,0,0,1,2.23-.4,3.7,3.7,0,0,1,2.8,1.19,5.12,5.12,0,0,1,.91,4.15c-2,19.46-3.88,39.27-5.74,58.43l-.6,6.22c-.08.86-.12,1.74-.16,2.67s-.08,1.87-.17,2.84l0,.4C492.28,138.18,491.93,142.2,487,142.2Z"/><path class="cls-1" d="M489.57,55.4l-.64,0c-5.21-.16-9.2-1.72-11.78-4.64-2.32-2.62-3.29-6.09-2.91-10.31.77-8.38,5.85-13.8,13-13.8h.46c4.07.13,8.57,2.41,11.74,6,2.47,2.75,3.71,5.81,3.49,8.63C502.36,48.19,497.23,55.4,489.57,55.4Z"/><path class="cls-1" d="M404.62,170.08a5.54,5.54,0,0,1-5.25-3.87c-2-4.8-4.13-9.66-6.18-14.36-1.71-3.92-3.42-7.83-5.09-11.77-2.08-4.89-4.14-9.87-6.13-14.7q-2.34-5.68-4.71-11.34a48.06,48.06,0,0,0-2.65-5.22l-.6-.11c-3.26-.59-6.63-1.19-9.9-1.49a1.87,1.87,0,0,0-.41.27c-3.54,7.42-7,15-10.41,22.35q-2,4.3-4,8.59l-1.23,2.66c-1.61,3.5-3.27,7.11-5.1,10.6a7.56,7.56,0,0,1-5.56,3.75c-6,.41-12.17.68-17.59.93l-5.5.25-1.73,0c-.94,0-2.9,0-4-1.71s-.21-3.39.41-4.61c1.48-2.9,2.9-5.9,4.28-8.81,1.9-4,3.86-8.15,6-12.14,1.34-2.45,3.75-4.4,6-6l12.4-11.78a3.78,3.78,0,0,0,1-3,3.45,3.45,0,0,0-1.47-2.55l-.06,0c-2.24-1.54-4.43-4.32-2.16-8.78q4.84-9.57,9.64-19.18l7.87-15.7q4.36-8.7,8.72-17.4l1.29-2.57c1.66-3.34,3.38-6.79,5.21-10.15a3.75,3.75,0,0,1,7,.55c.8,1.85,1.56,3.74,2.29,5.57.5,1.23,1,2.47,1.5,3.7q2.69,6.51,5.41,13,3.27,7.85,6.53,15.71,2.26,5.5,4.47,11c2,5,4.14,10.26,6.27,15.35,1.83,4.38,3.77,8.81,5.66,13.09,1.25,2.85,2.5,5.7,3.73,8.55.59,1.38,1.13,2.78,1.66,4.13s1,2.49,1.47,3.69c4.05,9.51,8.33,19.65,12.21,29.85.4,1.06.76,2,1.07,2.73,1.22,3,1.95,4.85.8,6.75s-3.12,2.07-5.87,2.35c-4.54.45-10.5,1.06-16.44,1.75a8.13,8.13,0,0,1-.93.06Zm-37.69-82c1.72.17,3.49.39,5.46.64l-2.23-8.6C369.08,82.76,368,85.35,366.92,88.1Z"/><path class="cls-1" d="M287.69,131.93c-8.87,0-16.49-2.34-22.67-6.94-11-8.19-15.76-19.72-13.85-33.34,1.5-10.79,7.28-19.57,17.16-26.09A45.74,45.74,0,0,1,294,57.83a58.71,58.71,0,0,1,12.72,1.48c6.39,1.42,12.13,5,17.53,10.87a5.73,5.73,0,0,1,.05,6.87c-2.29,2.5-4.67,4.94-7,7.31-1.72,1.77-3.45,3.54-5.14,5.34-4.42,4.7-8.12,8.73-12.21,13.19A29,29,0,0,0,311,96.52a7.2,7.2,0,0,1,4.89-2.39,6.81,6.81,0,0,1,4.63,2.19c1.64,1.55,3.29,3.09,5,4.63,2.35,2.18,4.77,4.44,7.12,6.72a4.51,4.51,0,0,1,0,6.46C320.68,125.52,306,131.5,289,131.91l-1.31,0ZM288.22,78c-6.94,0-12.67,5.31-13.63,12.63a13.64,13.64,0,0,0,4.31,12.28c.71-.76,1.39-1.57,2.1-2.41.56-.66,1.12-1.32,1.69-2q7.92-8.85,15.85-17.68a37,37,0,0,0-5.37-1.92L291,78.26a13,13,0,0,0-2-.26Z"/><path class="cls-1" d="M191.69,167.36c-1.64,0-4.44-.68-4.71-5.27,0-.69-.07-1.35-.11-2-.07-1.3-.13-2.56-.24-4-.42-5.94.26-10.63,2.12-14.75,5.31-11.71,4.85-23.22-1.35-34.23a7.9,7.9,0,0,0-.85-1.12c-.3-.36-.61-.72-.89-1.1-2.83-3.85-4.5-7-4.68-11.71-.2-5.24-.64-10.59-1.06-15.77-.2-2.47-.4-4.94-.58-7.41a8.86,8.86,0,0,1-3.6,1,4.36,4.36,0,0,1-3.83-2.13l-.11-.19a15.89,15.89,0,0,1-1.49-7.37c0-1.38.52-3.9,4.16-5,4.6-1.38,9.26-2.72,13.78-4,4.14-1.19,8.28-2.38,12.4-3.6a6.92,6.92,0,0,1,2-.34c1.17,0,3.92.46,4.16,4.71.43,7.14.92,14.39,1.4,21.44l15.87-22.4c1.28-1.81,2.6-3.69,4.93-3.69,2,0,3.28,1.37,4.88,3.11,2.58,2.81,5.44,5.52,8.21,8.14l2,1.94c1,.94,2,1.85,3,2.77,1.61,1.46,3.28,3,4.86,4.59s1.32,5.16-.14,6.71c-3.71,3.93-7.52,7.88-11.2,11.7q-3.59,3.72-7.17,7.45c-2.8,2.92-5.6,5.93-8.53,9.14l5.56,2.13c3.94,1.5,8,3.06,12,4.7,4.83,2,9.09,4,12.27,9.16,3.29,5.29,8.61,9.44,15.36,12,2.4.91,4.88,1.6,7.51,2.33,1.75.49,3.56,1,5.34,1.57a5.54,5.54,0,0,1,3.68,4.64c.08,3.5.08,7.06.08,10.51,0,2.15,0,4.29,0,6.44a5,5,0,0,1-1.22,3.59,3.72,3.72,0,0,1-2.67,1.1,5.91,5.91,0,0,1-2.69-.78L273.89,158q-5.42-2.84-10.84-5.66c-2.45-1.26-5-2.49-7.44-3.67-2-.94-3.9-1.85-5.83-2.76-3.38-1.59-6.87-3.24-10.29-4.94-5.75-2.87-11.56-5.83-17.19-8.69l-9.82-5v14.4a2.92,2.92,0,0,1,0,.54q0,2.38,0,4.75c0,3.87,0,7.87.05,11.78.13,5.42-4.23,5.88-5.66,6A89.75,89.75,0,0,0,194.27,167,10.34,10.34,0,0,1,191.69,167.36Z"/><path class="cls-1" d="M85,192.14c-1.38,0-3.28-.58-4.49-3.33q-3.75-8.54-7.56-17t-7.59-17.1c-1.6-3.65-3.17-7.38-4.69-11-1.78-4.21-3.61-8.57-5.5-12.8-1.58-3.54-3.31-7.12-5-10.58-1.23-2.54-2.51-5.17-3.72-7.79-.74-1.58-1.4-3.2-2-4.76s-1.16-2.83-1.78-4.19c-.28-.62-.55-1.29-.81-2a17,17,0,0,0-1.19-2.65,22.57,22.57,0,0,0-2.54,1.15c-.53.27-1.05.53-1.54.75A10.81,10.81,0,0,1,32.17,102c-3.37,0-5-2.89-5.93-4.62-3.14-5.66-6.9-12.34-10.94-19a6.2,6.2,0,0,1-1.06-4.81,5.4,5.4,0,0,1,2.82-3.32c1.2-.67,2.4-1.37,3.59-2.07a93.19,93.19,0,0,1,10.08-5.34C47.07,55.91,63.61,52,77.31,52h.36C79.49,52,82.93,52,85.45,52h2.08c6.83.59,7.62.71,13.18,3.26,10.76,5,21.17,11.48,24.59,24.78,2.46,9.58.78,19.58-5,29.74-5.44,9.57-13.19,17.62-24.38,25.33l0,.08c1.09,4.53,2.27,9.11,3.41,13.55.86,3.34,1.72,6.68,2.55,10,1.14,4.6,2.22,9.28,3.27,13.8l1,4.27c.07.29.16.61.25,1,.62,2.25,1.77,6.44-1.75,7.85-1.41.56-2,.75-3,1.07l-1.61.54-3.3,1.13c-3.12,1.07-6.35,2.17-9.49,3.32a6.45,6.45,0,0,1-2.26.45ZM80.36,88.55q2.27,7.14,4.5,14.3,2.42,7.71,4.86,15.41l.25-.2c4.45-3.52,8.66-6.85,11.37-12a15.32,15.32,0,0,0-.6-14.39,11.12,11.12,0,0,0-10-5.6c-.44,0-.9,0-1.36.06a37.22,37.22,0,0,0-9.05,2.31Z"/><path class="cls-1" d="M147.9,165.64c-10.37,0-18.86-4.25-24.56-12.29-5.21-7.36-6.78-16.48-4.55-26.38,2.4-10.58,8.42-19.35,17.89-26a37.82,37.82,0,0,1,22.23-7.14,45,45,0,0,1,7.13.59c8.85,1.42,15.74,6.56,19.93,14.87a26.79,26.79,0,0,1,2.86,8.63c.13.65.27,1.38.45,2.23a3,3,0,0,1,.06.61c0,.27.05.76.1,1.23a19.16,19.16,0,0,1,.15,2.36c.05,8.55-2.65,16.42-8.27,24.06-7.66,10.42-17.85,16.2-30.31,17.16-1,.08-2.1.12-3.11.12ZM149.57,109a11.63,11.63,0,0,0-4.81,6.07c-1.3,4.45-.7,8.8,1.65,11.93A11.58,11.58,0,0,0,156,131.5h.29c6.12,0,10.12-2.16,13-7a11.93,11.93,0,0,0,1.58-4.17,12.57,12.57,0,0,1-9.67,5H161c-5.66-.06-12.48-5.12-12.45-11.29A12.9,12.9,0,0,1,149.57,109Z"/><path class="cls-1" d="M282.91,49.91a4.15,4.15,0,0,1-2.9-1c-2.57-2.37-2.74-5.34-.46-7.94,4.38-5,8.73-10.21,12.93-15.25q2.88-3.45,5.76-6.89c.1-.13.21-.26.32-.38a5.71,5.71,0,0,1,4.34-2,5.78,5.78,0,0,1,4.35,2l7.15,8.24a5.67,5.67,0,0,1,.94,1.49l.05.13a5.45,5.45,0,0,1-2.47,7.09L286.52,49.1a5,5,0,0,1-1.09.43A10.2,10.2,0,0,1,282.91,49.91Z"/><path class="cls-1" d="M426,141.6a5.75,5.75,0,0,1-5.36-3.6c-4-10-6.46-20.13-8.48-29.56-1.09-4.34-1.82-7.5-2.83-11.86-.52-2.26-1.12-4.83-1.87-8-.62-2.5-1.26-5-1.91-7.55-.72-2.8-1.45-5.67-2.15-8.55a5.91,5.91,0,0,1-3.72,1.68c-3.2,0-3.93-3-4.77-6.52l-.07-.3c-1.06-4.42-2.3-8.89-3.5-13.22q-.68-2.43-1.34-4.87l-.09-.32a5,5,0,0,1,.24-4.23,4.67,4.67,0,0,1,3.27-2c14.11-3.79,24-5.79,38.94-6.21h.25c10.27.57,19.15,1.05,27.22,5.82a21.12,21.12,0,0,1,10.49,15c1.16,6.86-3.3,12.17-5.69,15A153,153,0,0,1,452.26,85.5a109.08,109.08,0,0,1-8.76,7.18c-1.26,1-2.52,1.92-3.75,2.9a4.43,4.43,0,0,1-.49.34A16.5,16.5,0,0,0,436,98.59a15.24,15.24,0,0,0,.48,3.75l.16.85c1.16,6.22,2.12,12.56,3,18.69.45,3,.9,6,1.38,9,.54,3.38-.92,5.79-4.32,7.17L428,141.24a5.77,5.77,0,0,1-2,.36Zm4.23-74.4c.26,2.07.57,4.16.86,6.19.14,1,.29,2,.43,3l1.26-1.13c2.81-2.51,5.72-5.11,8.33-7.83a9,9,0,0,0,.69-.79,9.81,9.81,0,0,0-1.18-.35l-1-.27a9.91,9.91,0,0,0-3.14-.48,17.51,17.51,0,0,0-5.33,1.34Z"/><path class="cls-1" d="M487,142.2c-.33,0-.71,0-1.12-.06l-5.56-.59c-4.2-.46-8.17-.89-12.08-1.16a6.16,6.16,0,0,1-4.58-2,6.35,6.35,0,0,1-1-5.08c1.41-9.78,2.66-19.32,4-29.88.37-2.82.7-5.65,1-8.48.39-3.33.79-6.77,1.25-10.16a7,7,0,0,1-1.72.24,5.16,5.16,0,0,1-4-1.92,3,3,0,0,1-.65-1.2,6.82,6.82,0,0,1,.1-4.51c.06-.18.13-.38.19-.62a22.34,22.34,0,0,1,.8-2.61c1.94-5.25,4.82-7.68,10.29-8.66a163.42,163.42,0,0,0,16.78-4.31l2.35-.69a7.85,7.85,0,0,1,2.23-.4,3.7,3.7,0,0,1,2.8,1.19,5.12,5.12,0,0,1,.91,4.15c-2,19.46-3.88,39.27-5.74,58.43l-.6,6.22c-.08.86-.12,1.74-.16,2.67s-.08,1.87-.17,2.84l0,.4C492.28,138.18,491.93,142.2,487,142.2Z"/><path class="cls-1" d="M489.57,55.4l-.64,0c-5.21-.16-9.2-1.72-11.78-4.64-2.32-2.62-3.29-6.09-2.91-10.31.77-8.38,5.85-13.8,13-13.8h.46c4.07.13,8.57,2.41,11.74,6,2.47,2.75,3.71,5.81,3.49,8.63C502.36,48.19,497.23,55.4,489.57,55.4Z"/></g><g id="Blue-2" data-name="Blue"><path class="cls-2" d="M507.1,41.3c.78-6.62-2.55-10.7-6.9-14.46-4.77-4.13-12.68-5.75-18.44-3.69a12.17,12.17,0,0,0-3.34,1.67c-5.48,3.77-7.74,9.32-8.83,15.63-.13.72-.16,1.26-1,1.73-.66.38-1.51-.33-2.07-.92-1.62-1.68-1.57-1.57-5.6-4.18a54.65,54.65,0,0,0-25-5.58c-4.35.09-8.7.21-13,.48A69.41,69.41,0,0,0,413,33.05c-7.16,1.49-14.24,3.33-21.38,4.91a48.82,48.82,0,0,1-7,.91,1.65,1.65,0,0,1-1.8-1.06c-3.14-7.4-6.15-14.84-9.26-22.25-.35-.84-.76-2-1.65-2-.58,0-1.22.9-1.59,1.59-2.33,4.42-4.64,8.85-6.86,13.33-2.75,5.53-5.33,11.14-8.09,16.66-3.72,7.43-7.64,14.75-11.3,22.2-4.36,8.88-8.83,17.72-12.85,26.77-.39.88-.85.93-1.46.48-1.19-.87-2.39-1.77-3.53-2.71-2-1.65-2.41-3.06-.17-5.17,3.45-3.24,6.38-6.2,9.36-9.5a3.45,3.45,0,0,0,.31-3.12,24.42,24.42,0,0,0-3.83-5.73c-3.28-3.48-6.33-7.6-10.37-9.87-7-3.92-14.36-7.47-22.81-7.39-.58,0-.91.07-1.17-.42-.11-.28,0-.43.23-.59A20.69,20.69,0,0,1,300,48.66c8.1-4.5,16.48-8.46,24.63-12.85a1.87,1.87,0,0,0,.87-2.54c-.89-1.37-1.82-2.62-2.83-4-2.83-4.23-5.75-8.33-8.49-12.62q-3.9-6.11-7.68-12.29c-.91-1.47-2.68-1.32-3.91.24q-4.09,5.16-8.35,10.18c-4,4.68-8.05,9.28-12.06,13.93-4.27,5-8.41,10-12.8,14.88-3.08,3.39-3,3.09-.1,6.47.94,1.08,1.75,2.18,2.64,3.23,1.37,1.62.49,2.13-.84,2.78a53,53,0,0,0-6.89,3.79c-6.53,4.15-6.13,4.82-12-.4S240.32,49,234.41,43.66c-2.32-2.09-4.42-4.41-6.78-6.44-.82-.71-2-2.47-3.22-.22-3,5.84-6,11.69-9.09,17.53-.25.49-.59,1.4-.94,1.38s-.25-1-.22-1.51c.29-5,.28-10.11.59-15.16.18-3-1.09-2.83-3.29-2.06-4.89,1.71-9.86,3.21-14.8,4.81L183,46.42c-5.46,1.77-10.4,3.29-16.41,5.09-2.82.84-3.55,1.42-3.41,4,.34,6.17.55,12.34.7,18.5.16,6.83.11,6.84,6.43,5,.41-.11.8-.28,1.21-.41,1.6-.54,2.12,0,2.16,1.91.06,2.57.13,4.94.28,7.67s-.22,3.37-2.93,2.65c-5.07-1.37-8.94-2.59-15.55-2-7.52.7-12.18,1.6-21.34,7.41a1.06,1.06,0,0,1-1.18.15,1.24,1.24,0,0,1-.23-1.31,36.22,36.22,0,0,0,1.14-5.59C135.28,80.16,131,71.71,125,64a36.7,36.7,0,0,0-8.07-7.62c-4.43-3.08-9-6.26-14-8.19A38.63,38.63,0,0,0,93,45.57a64.15,64.15,0,0,0-9.8-.82c-7.58,0-14.58-.12-22.63,1-8.27,1.18-16.36,4-24.29,6.72a117.19,117.19,0,0,0-16.79,7.9C14.64,63,10.72,65.83,5.34,69c-2.69,1.6-2.62,3.21-1.52,5.18,3,5.46,6.3,10.82,9.53,16.19,4.09,6.82,8.36,13.54,12.3,20.44,1.38,2.41,2.62,2.67,4.94,1.45,1.55-.81,3.08-1.43,4.52-2.25,1.7-1,2.13-.47,2.74.92,2.41,5.45,4.9,10.87,7.3,16.33,3.52,8,7,16,10.5,24,3.9,8.81,7.88,17.59,11.78,26.41,3.26,7.36,6,13.65,9.21,21,1,2.38,2.66,2.86,5.29,2,3.73-1.15,6.21-1.92,9.94-3.12,6.46-2.06,13-4,19.33-6.28,5.42-1.94,5.38-2.13,4.51-7.76a15.15,15.15,0,0,0-.31-1.52q-4.34-16.73-8.67-33.44c-1.42-5.49-3.85-10.58,3-15.16,1.06-.74,1.72-1.05,2.14-.9s.51,1,.52,2.07c0,3.14.11,6.24.45,9.37,1.91,8.43,4.34,12.31,10.35,18.66a31,31,0,0,0,16.28,8.83,54.07,54.07,0,0,0,13.87.64,37.54,37.54,0,0,0,10.46-2.53,42,42,0,0,0,14.89-9.06c.66-.63,1.34-.07,1.42.57.49,3.94.75,7,1.32,11,.25,1.83.63,3.33,3.6,3,3.91-.39,2.12-.16,4-.43,8.9-1.24,17.79-2.63,26.71-3.68,2.26-.27,3-.89,2.95-3.1-.09-8.8,0-17.59-.09-26.38,0-2.24,1.74-2.62,3.2-1.9,5,2.49,10,5.07,15.09,7.57,8.3,4.12,16.62,8.21,24.91,12.34,5.14,2.56,10.25,5.18,15.37,7.76,4.29,2.16,8.57,4.34,12.88,6.45,2.6,1.27,3.46.74,3.47-2.07,0-5,0-10,0-15,0-4.66.16-9.34-.07-14-.13-2.84.56-3.23,3.63-3.81a52.67,52.67,0,0,0,6.17-1.49c1.62-.47,3.18-1.16,4.8-1.62,1.35-.37,1.66.13,1,1.42-3.81,7.73-6.67,14.23-10.73,21.83-1.35,2.5.76,3.45,2.37,3.39,5.84-.22,9.93-.41,15.77-.6,7.68-.24,15.37-.47,23-.65a7.46,7.46,0,0,0,7.38-4.95c1.91-4.49,4.1-8.86,6.18-13.28,4.26-9,8.41-18.09,12.83-27,1-2,1.5-2.56,2.84-2.61,2.17-.08,2.2,1,3,2.76,1.82,4.09,3.55,8.23,5.31,12.36l12.16,28.41c2.42,5.66,4.73,11.36,7.28,17,.65,1.43,1.93,2.18,4.19,2,11.73-1.21,21.58-2.23,33.31-3.47,3.83-.4,4.23-1,2.78-4.26-2.41-5.49-4.82-11-7.28-16.44-.72-1.61-1-2.76,1-3.83,5-2.56,9.88-5.35,14.71-8.22a4.16,4.16,0,0,0,1.92-2.89,46.84,46.84,0,0,0-.8-8.34c-1.57-8.64-3.31-17.25-4.86-25.89A3.09,3.09,0,0,1,442.6,100c2.22-1.83,4.2-3.28,6.86-5.25,3.88-2.88,5.91-4,12.23-4.57,1-.1,1.51.42,1.79,1.68.43,3.68-.23,7.14-.72,10.67-1.82,13-3.69,24.93-5.47,38-.17,1.25,0,2.85,1.94,3.07,11.63,1.27,21.67,2,33.33,3.06a2.43,2.43,0,0,0,2.84-2.37c.3-2.65.46-5.34.75-8,.89-7.92,1.88-15.82,2.73-23.74.89-8.34,1.68-16.68,2.46-25,.32-3.44.34-6.92.78-10.35.93-7.21,2.08-14.39,3-21.61.17-1.58-.92-1.66-1.58-1.82-1.09-.26-1.8-.21-.6-1.34C506.15,49.4,506.65,45.2,507.1,41.3ZM476.59,58.24c.11-.58.18-.91.63-1.17a1.56,1.56,0,0,1,1.18,0c1.22.45,2.51.78,2.57,1.55s-.9.87-2,1.28C477.35,60.52,476.11,60.61,476.59,58.24ZM281.8,42.91c6.39-7.29,12.52-14.81,18.77-22.23a2.92,2.92,0,0,1,4.41-.3l7.14,8.23a2.7,2.7,0,0,1,.45.7c0,.06,0,.12.07.17a2.46,2.46,0,0,1-1.11,3.21l-26.4,13.74a2.25,2.25,0,0,1-.51.2c-.91.23-2.12.46-2.59,0C281,45.72,280.32,44.61,281.8,42.91ZM94,132.76a3.3,3.3,0,0,0-1.11,2.8c1.92,8,4.06,15.93,6,23.9,1.49,6,2.85,12,4.25,18,.4,1.72,1.58,4.84.31,5.35-1.91.76-2.16.78-4.43,1.55-4.29,1.48-8.6,2.92-12.86,4.48-1.54.57-2.29.29-3-1.27-5-11.4-10.14-22.73-15.14-34.13-3.47-7.91-6.69-15.93-10.2-23.81-2.77-6.2-5.87-12.25-8.73-18.41-1.37-2.93-2.47-6-3.82-8.94-1-2.25-1.76-5.38-3.55-6.29-1.46-.73-4.35,1.11-6.49,2.08-3.64,1.64-4.55,1.31-6.45-2.12-3.56-6.41-7.18-12.8-11-19.06C16.76,75.1,16.74,74,18.53,73c4.44-2.49,8.75-5.28,13.4-7.28C46.53,59.41,63.34,55,77.73,55,80,54.93,85.15,55,87.28,55c6.62.57,7.1.67,12.19,3,10.5,4.89,19.87,10.87,22.93,22.8,2.48,9.67.21,18.89-4.68,27.51C111.91,118.47,103.59,126.2,94,132.76Zm84.88,13.83c-7,9.53-16.3,15-28.12,15.94-10.21.79-19-2.51-25-10.91-5-7.1-6-15.43-4.07-24,2.34-10.3,8.11-18.18,16.7-24.26,8.27-5.85,17.34-7.62,27.15-6,8.17,1.31,14.12,6.1,17.73,13.26,2.08,4.13,2,5.18,3,10.12,0,.95.28,2.46.25,3.56C186.66,132.63,183.78,139.95,178.91,146.59ZM281.61,158.7c-5.73-3-11.45-6-17.19-9-2.5-1.29-5-2.51-7.56-3.73-5.34-2.56-10.74-5-16-7.66-9.18-4.58-18.3-9.28-27.46-13.91-3.87-2-3.89-1.94-3.89,2.22v15.63h.05c0,5.53-.08,11.07,0,16.6,0,2.17-.7,2.74-3,3a93,93,0,0,0-13.06,2.21c-2.56.65-3.41.4-3.56-2.14-.12-2.09-.19-3.87-.35-6-.32-4.55,0-9.13,1.86-13.29,5.63-12.42,5.34-24.85-1.47-36.94a25.87,25.87,0,0,0-1.93-2.52c-2.51-3.42-4-6-4.1-10-.32-8.34-1.2-16.65-1.76-25-.14-2.07-.8-2.27-2.63-1.49s-4.17,2.26-5.11.7a13.1,13.1,0,0,1-1.17-6c0-1.42,1.19-1.88,2-2.14,8.7-2.61,17.46-5,26.16-7.61,1.84-.55,2.21,0,2.31,1.67.51,8.52,1.1,17,1.68,25.54a1.23,1.23,0,0,0,.73,1,1.85,1.85,0,0,0,2.2-.54c.57-.72,1.1-1.47,1.64-2.22l16.46-23.23c2.3-3.26,2.55-3.11,5.15-.28,3.28,3.57,6.87,6.86,10.39,10.22,2.57,2.45,5.31,4.75,7.79,7.29a2.63,2.63,0,0,1-.18,2.56c-6.06,6.43-12.25,12.74-18.36,19.13q-5.36,5.6-10.54,11.35c-.47.52-.85,1.1.35,1.58,6.74,2.67,13.56,5.13,20.26,7.89,4.22,1.73,8.09,3.5,10.87,8,3.85,6.18,9.9,10.59,16.84,13.23,4.22,1.6,8.69,2.56,13,4a2.67,2.67,0,0,1,1.6,1.83c.13,5.65,0,11.29.1,16.93C283.83,159.41,283,159.41,281.61,158.7Zm-39.77-54.34c-2-.66-4.51-1.08-4.84-2.73-.19-1.23.88-2.35,2.59-4.42a21.73,21.73,0,0,1,2-2.1l0,0a1.36,1.36,0,0,1,2.26.84l.77,6.18C245.09,105.13,243.6,104.92,241.84,104.35Zm47.08,24.56c-8,.21-15.77-1.6-22.11-6.33-10-7.5-14.42-18-12.67-30.52,1.44-10.33,7-18.16,15.84-24,11.26-7.44,23.31-8.67,36-5.83,6.4,1.42,11.59,5.19,16,10A2.91,2.91,0,0,1,322,75c-3.93,4.29-8.09,8.37-12.07,12.6-5.47,5.82-9.81,10.57-15.21,16.46-.3.33-1.84,1.72-1.6,2.52s2.57.4,3.18.28c6.42-1.21,12.73-4.27,16.79-8.22,2.1-2,3.45-2,5.36-.18,4,3.8,8.1,7.49,12,11.33a1.51,1.51,0,0,1,0,2.15C318.9,123.08,304.91,128.53,288.92,128.91ZM421.7,165.28c-5.5.55-11,1.12-16.49,1.76-1.68.19-2.39-.36-3.07-2-3.66-8.75-7.57-17.4-11.28-26.14s-7.19-17.37-10.83-26a52.3,52.3,0,0,0-2.94-5.78,2.88,2.88,0,0,0-1.76-1.2c-3.73-.67-7.47-1.37-11.23-1.69a3.9,3.9,0,0,0-3,1.86c-4.92,10.32-9.65,20.73-14.45,31.1-2,4.4-4,8.84-6.26,13.13a4.58,4.58,0,0,1-3.12,2.15c-8,.54-16,.84-22.91,1.17-3.39,0-3.67.24-2.56-1.94,3.53-6.91,6.57-14.07,10.27-20.88,1.06-1.94,3.23-3.67,5.24-5.1l12.6-12a6.67,6.67,0,0,0-.85-10.12l-.07,0c-2.09-1.44-2.23-2.9-1.19-5Q344.41,85.47,351,72.29q6.51-13,13-26c2.12-4.23,4.19-8.48,6.45-12.64.44-.82,1.24-.71,1.54.21,1.34,3.08,2.53,6.22,3.82,9.32,4,9.57,8,19.12,11.93,28.7,3.61,8.78,7.08,17.63,10.75,26.39,3,7.26,6.29,14.44,9.4,21.67,1.11,2.57,2,5.23,3.12,7.81,4.2,9.86,8.36,19.73,12.17,29.74C426,164.84,426.86,164.77,421.7,165.28Zm40.59-95a151.48,151.48,0,0,1-12.08,13c-3.83,3.61-8.21,6.65-12.35,9.94a2.53,2.53,0,0,1-.27.18c-5.37,3.86-5.09,3.81-3.88,10.3,1.71,9.15,2.94,18.39,4.4,27.58.3,1.89-.26,3-2.48,3.92l-8.68,3.19a2.78,2.78,0,0,1-3.55-1.55c-3.78-9.37-6.17-19-8.34-29.12-1.66-6.6-2.51-10.56-4.71-19.9-1.5-6.09-3.13-12.15-4.58-18.26-.45-1.86-.8-2.43-2.55-.93-4.23,3.62-4.16,3.51-5.5-2.06-1.46-6.1-3.22-12.12-4.87-18.17-.35-1.28-1-2.5,1.18-2.86,13.31-3.58,23.33-5.72,38.37-6.14,10.54.58,18.53,1.08,25.86,5.41a18.17,18.17,0,0,1,9.06,12.89C468.16,62.76,465.28,66.76,462.28,70.33Zm33.9-5.17q-3.25,32.32-6.34,64.67c-.18,1.84-.16,3.69-.33,5.52-.26,2.9-.2,4.11-3.3,3.81-6.51-.67-12.11-1.37-17.72-1.76-2.66-.18-3.15-1.22-2.8-3.66,1.44-10,2.74-19.94,4-29.92.82-6.34,1.47-12.69,2.33-19,.34-2.46,0-3.76-2.92-3.12-1.44.32-2.32.82-3.53-.55-.49-1.81-.09-2.16.29-3.56a19.32,19.32,0,0,1,.72-2.35c1.59-4.31,3.67-6,8-6.75a191.51,191.51,0,0,0,19.44-5.07C496.15,62.78,496.4,63.1,496.18,65.16Zm-7.09-12.77c-8.14-.25-12.54-4.26-11.86-11.68.58-6.35,4.1-11.27,10.33-11.07,5.93.19,12.72,6.36,12.34,11.36C499.45,47,495,52.71,489.09,52.39Z"/><path class="cls-2" d="M89.13,83.16a40.85,40.85,0,0,0-10,2.55c-2.06.75-2.2,1.91-1.62,3.74,3.4,10.71,6.72,21.45,10.14,32.15.38,1.11,1.33,1.06,1.54.92,5.47-4.47,11.23-8.27,14.81-15C109.1,97.85,103.63,81.88,89.13,83.16ZM93.41,109c-.33.21-1.18,1-1.54-.13-1.69-5.33-3.43-10.65-4.78-16.07-.28-1.14.94-1.22,1.51-1.29,5.37-.64,8.84,2.69,9.58,8.74A10.14,10.14,0,0,1,93.41,109Z"/><path class="cls-2" d="M375.38,92.13c-4-.48-7.09-.91-10.21-1.18-2.23-.24-2.42-.51-1.6-2.54,2.17-5.38,4.07-10,6.26-15.42.11-.28.35-1,.86-1s.64.75.74,1.06l4.5,17.35C376.34,91.84,376.18,92.13,375.38,92.13Z"/><path class="cls-2" d="M443.26,69.49c-3.88,4-8.21,7.65-12.34,11.45-1.17,1.09-1.71,1-1.93-.74-.56-4.4-1.28-8.79-1.83-13.19a2.34,2.34,0,0,1,1.75-2.54c2.62-.92,4.58-1.8,7.47-1.95a15.72,15.72,0,0,1,4.91.83C445.59,64.38,446.35,66.26,443.26,69.49Z"/><path class="cls-2" d="M300.2,78.3a55.5,55.5,0,0,0-8.4-2.93,15.72,15.72,0,0,0-2.57-.36c-8.63-.53-16.38,5.8-17.61,15.21a16.76,16.76,0,0,0,6.3,15.8,2.37,2.37,0,0,0,2.29-.17c1.69-1.66,3.14-3.56,4.72-5.33q8-8.91,16-17.79C302.52,80.92,302.29,79.26,300.2,78.3ZM292,83.15c-3.83,4.29-7.58,8.62-11.43,12.9-.34.37-.58.75-1.14.75s-.7-.27-.94-1.26a13.65,13.65,0,0,1-.57-3.46C278.41,85,284.3,80,290.41,81c.47.08,2,.3,2.18.89S292.33,82.79,292,83.15Z"/><path class="cls-2" d="M171.83,126c-3.39,5.75-8.33,8.55-15.84,8.48-10.56,0-17.31-9.26-14.11-20.25,1.59-5.43,7.89-10.37,13.52-9.91a6.1,6.1,0,0,1,1.43.35l-1.08,1c-2.41,2.18-4.17,4.68-4.18,8.39,0,4.26,5.1,8.23,9.49,8.28,4.59.06,8.53-4.1,9.78-8.32.19-.65.34-1.31.52-2a9.62,9.62,0,0,1,1.42,1.62C174.66,117.74,174.21,122,171.83,126Z"/></g><g id="Yellow-2" data-name="Yellow"><path class="cls-1" d="M404.62,168.08c-2,0-2.83-1.27-3.41-2.64-2-4.81-4.14-9.68-6.19-14.39-1.71-3.91-3.42-7.82-5.08-11.75-2.08-4.88-4.13-9.86-6.12-14.68q-2.34-5.68-4.71-11.35a50.81,50.81,0,0,0-2.88-5.67,1.91,1.91,0,0,0-1.08-.72l-.77-.14c-3.4-.61-6.91-1.24-10.36-1.54h0a3.1,3.1,0,0,0-2,1.29c-3.56,7.47-7.08,15.12-10.49,22.51q-2,4.29-4,8.58l-1.23,2.67c-1.6,3.47-3.25,7.06-5.05,10.51a5.54,5.54,0,0,1-3.93,2.68c-6,.41-12.13.68-17.54.92l-5.4.25-1.75,0c-.79,0-1.78,0-2.25-.76s0-1.6.49-2.66c1.49-2.92,2.92-5.94,4.31-8.86,1.88-4,3.83-8.1,6-12,1.17-2.15,3.54-4,5.48-5.4L339.19,113a5.77,5.77,0,0,0,1.59-4.57,5.49,5.49,0,0,0-2.32-4l-.07,0c-2.4-1.68-2.85-3.59-1.52-6.22q4.84-9.58,9.65-19.19l7.88-15.72q4.35-8.69,8.72-17.39l1.29-2.58c1.66-3.32,3.37-6.76,5.18-10.09a1.85,1.85,0,0,1,1.62-1.08,1.9,1.9,0,0,1,1.75,1.45c.78,1.77,1.54,3.68,2.28,5.52.5,1.24,1,2.49,1.51,3.72q2.69,6.51,5.41,13,3.27,7.85,6.52,15.7,2.26,5.49,4.47,11c2,5.05,4.14,10.27,6.28,15.38,1.83,4.39,3.78,8.83,5.67,13.12,1.25,2.84,2.5,5.69,3.73,8.54.58,1.34,1.11,2.73,1.63,4.06s1,2.52,1.49,3.75c4,9.5,8.32,19.62,12.18,29.78.41,1.07.77,2,1.09,2.76,1.08,2.7,1.58,3.93.95,5s-1.87,1.14-4.36,1.39c-4.54.45-10.52,1.06-16.47,1.76a6.11,6.11,0,0,1-.7,0ZM364.14,89.78a8.14,8.14,0,0,0,1.13.17c2.27.2,4.53.48,7.14.8l2.66.33c0-.1-.06-.23-.1-.37l-4.39-16.92-.44,1.09c-1.94,4.75-3.68,9-5.64,13.9A7.39,7.39,0,0,0,364.14,89.78Z"/><path class="cls-1" d="M287.69,129.93c-8.43,0-15.65-2.2-21.47-6.54-10.35-7.73-14.87-18.61-13.06-31.46,1.42-10.2,6.9-18.51,16.28-24.7A43.19,43.19,0,0,1,294,59.83a56.7,56.7,0,0,1,12.29,1.43c6,1.33,11.37,4.69,16.49,10.27a3.78,3.78,0,0,1,0,4.18c-2.26,2.47-4.63,4.9-6.92,7.25-1.73,1.78-3.46,3.56-5.16,5.36-4.94,5.25-9,9.67-13.67,14.78l-1.53,1.67-.21.22a8.24,8.24,0,0,0-1,1.14h.16a8.82,8.82,0,0,0,1.6-.21l.1,0c6.29-1.19,12.38-4.16,16.28-8a5.1,5.1,0,0,1,3.49-1.82,4.74,4.74,0,0,1,3.25,1.63c1.64,1.56,3.31,3.11,5,4.65,2.34,2.17,4.76,4.42,7.09,6.69a2.49,2.49,0,0,1,.75,1.81,2.47,2.47,0,0,1-.75,1.78c-11.56,11-25.79,16.82-42.28,17.22l-1.26,0ZM288.22,76c-8,0-14.52,6-15.61,14.37a15.86,15.86,0,0,0,5.95,14.9s0,0,0,0h.27a1.66,1.66,0,0,0,.7-.13c1-1,2-2.2,3-3.34.55-.65,1.09-1.29,1.65-1.92q8-8.91,16-17.79a2.3,2.3,0,0,0,.81-1.77c-.11-.51-.69-.87-1.16-1.08a39,39,0,0,0-6-2.21l-2.24-.68a14.88,14.88,0,0,0-2.35-.32Z"/><path class="cls-1" d="M191.69,165.36c-2.52,0-2.66-2.46-2.72-3.39,0-.68-.07-1.34-.11-2-.07-1.31-.14-2.59-.24-4-.39-5.59.23-10,1.95-13.78,5.58-12.32,5.1-24.44-1.43-36a9.36,9.36,0,0,0-1.07-1.43c-.27-.32-.55-.65-.8-1-2.66-3.63-4.14-6.39-4.29-10.6-.2-5.28-.64-10.66-1.06-15.85-.25-3-.49-6.06-.7-9.1a3.2,3.2,0,0,0-.17-1,3.67,3.67,0,0,0-1.07.34l-.89.4A8.7,8.7,0,0,1,175.75,69a2.34,2.34,0,0,1-2.12-1.16,13.81,13.81,0,0,1-1.31-6.54c0-2.25,2.06-2.89,2.75-3.1,4.58-1.37,9.24-2.71,13.75-4,4.15-1.19,8.29-2.38,12.42-3.61a5,5,0,0,1,1.43-.25c2,0,2.12,2,2.17,2.82.45,7.6,1,15.32,1.49,22.78l.19,2.75a.23.23,0,0,0,.13.2A.86.86,0,0,0,207,79a.84.84,0,0,0,.66-.32c.48-.61.94-1.24,1.39-1.87l16.68-23.54c1.24-1.76,2.07-2.85,3.3-2.85s2,.93,3.4,2.47c2.63,2.86,5.52,5.59,8.31,8.24l2,1.93c1,1,2,1.88,3,2.81,1.59,1.44,3.24,2.94,4.77,4.51.84.84.62,3.11-.17,3.94-3.7,3.92-7.5,7.87-11.19,11.68q-3.6,3.72-7.18,7.46c-3.42,3.58-6.86,7.28-10.51,11.32,2.75,1.09,5.51,2.14,8.28,3.2,3.93,1.5,8,3.05,12,4.68,4.5,1.85,8.47,3.75,11.34,8.37,3.53,5.66,9.18,10.1,16.35,12.82,2.49.94,5.13,1.68,7.69,2.39,1.73.48,3.52,1,5.26,1.54a3.59,3.59,0,0,1,2.29,2.77c.08,3.49.08,7,.08,10.48,0,2.15,0,4.31,0,6.46a2.89,2.89,0,0,1-.64,2.17,1.71,1.71,0,0,1-1.25.5,3.84,3.84,0,0,1-1.76-.55l-6.33-3.31q-5.42-2.84-10.85-5.66c-2.47-1.28-5-2.51-7.49-3.7-2-.95-3.91-1.86-5.85-2.77-3.37-1.59-6.85-3.23-10.25-4.92-5.74-2.87-11.55-5.82-17.17-8.69l-10.29-5.23a22.71,22.71,0,0,0-2.36-1.1,21.7,21.7,0,0,0-.08,2.43V142a.92.92,0,0,1,0,.3q0,2.37,0,4.75c0,3.88,0,7.9.05,11.83.07,3-1.43,3.74-3.87,4A91.69,91.69,0,0,0,193.78,165,8.7,8.7,0,0,1,191.69,165.36Z"/><path class="cls-1" d="M85,190.14A3,3,0,0,1,82.33,188q-3.75-8.54-7.56-17t-7.58-17.09c-1.6-3.64-3.17-7.36-4.68-11-1.78-4.22-3.62-8.59-5.51-12.84-1.6-3.57-3.33-7.16-5-10.63-1.23-2.54-2.5-5.16-3.71-7.76-.72-1.54-1.37-3.13-2-4.68s-1.18-2.87-1.82-4.27c-.27-.58-.51-1.22-.76-1.86-.62-1.62-1.33-3.45-2.33-4a.81.81,0,0,0-.34-.06,11.33,11.33,0,0,0-3.81,1.44c-.51.26-1,.5-1.47.71a9.16,9.16,0,0,1-3.56,1c-2,0-3.09-1.63-4.18-3.59-3.15-5.68-6.92-12.38-11-19a4.33,4.33,0,0,1-.83-3.26A3.45,3.45,0,0,1,18,72.1c1.21-.68,2.42-1.39,3.63-2.09a91.6,91.6,0,0,1,9.86-5.23C47.62,57.85,63.88,54,77.31,54h.44C79.43,54,82.91,54,85.45,54h1.82c6.87.59,7.46.73,12.61,3.09,10.3,4.8,20.28,11,23.48,23.46,2.32,9.06.72,18.57-4.78,28.25-5.32,9.36-12.94,17.24-24,24.82a2.43,2.43,0,0,0-.7,1.74c1.12,4.64,2.33,9.34,3.5,13.89.86,3.33,1.71,6.67,2.54,10,1.14,4.59,2.22,9.26,3.26,13.77l1,4.27c.07.31.17.66.27,1,.58,2.1,1.3,4.72-.56,5.47-1.35.54-1.91.72-2.85,1l-1.63.54-3.31,1.14c-3.13,1.07-6.37,2.18-9.53,3.34a4.54,4.54,0,0,1-1.57.33Zm5.76-106c-.5,0-1,0-1.54.07a40.08,40.08,0,0,0-9.75,2.49c-1.33.48-1.51.93-1,2.5q2.27,7.14,4.5,14.29,2.8,8.94,5.64,17.86a.52.52,0,0,0,.18.27c.77-.63,1.61-1.29,2.44-2,4.62-3.66,9-7.11,11.89-12.6a17.17,17.17,0,0,0-.65-16.35A13.19,13.19,0,0,0,90.75,84.09Z"/><path class="cls-1" d="M147.9,163.64c-9.69,0-17.62-4-22.93-11.44-4.87-6.88-6.34-15.45-4.23-24.78,2.32-10.23,7.92-18.36,17.1-24.86a35.85,35.85,0,0,1,21.08-6.77,43,43,0,0,1,6.81.56c8.19,1.31,14.58,6.08,18.46,13.8a24.94,24.94,0,0,1,2.68,8.11c.13.66.28,1.4.45,2.25a1,1,0,0,1,0,.2c0,.38.05.89.11,1.44a16.92,16.92,0,0,1,.14,2.15c.06,8.08-2.52,15.58-7.88,22.87-7.3,9.93-17,15.43-28.85,16.35-1,.08-2,.12-3,.12Zm6.76-58.33c-4.86,0-10.38,4.31-11.82,9.22-1.48,5.07-.76,10.06,2,13.69A13.54,13.54,0,0,0,156,133.5h.29c6.82,0,11.49-2.54,14.7-8,2.26-3.81,2.58-7.73.94-11.33l-.05-.07-.06.2c-1.3,4.38-5.47,9-10.64,9H161c-4.73-.05-10.5-4.35-10.48-9.28a11.66,11.66,0,0,1,4.11-8.75Z"/><path class="cls-1" d="M282.91,47.91a2.2,2.2,0,0,1-1.55-.5c-1.77-1.63-1.87-3.36-.31-5.15,4.4-5,8.75-10.24,13-15.29q2.89-3.47,5.8-6.93a3.06,3.06,0,0,1,.28-.32,3.65,3.65,0,0,1,2.81-1.28,3.78,3.78,0,0,1,2.84,1.29L312.88,28a3.71,3.71,0,0,1,.61,1l-.87.5.92-.4,0,.09A3.44,3.44,0,0,1,312,33.58L285.6,47.32a3.2,3.2,0,0,1-.7.28A8.21,8.21,0,0,1,282.91,47.91Z"/><path class="cls-1" d="M426,139.6a3.76,3.76,0,0,1-3.5-2.35c-4-9.89-6.39-19.92-8.39-29.29-1.08-4.31-1.82-7.47-2.83-11.85-.52-2.26-1.12-4.83-1.87-8-.62-2.52-1.27-5.05-1.92-7.58-.89-3.49-1.82-7.1-2.66-10.68a8.29,8.29,0,0,0-.26-.91,6,6,0,0,0-.67.51c-2.1,1.8-3.16,2.71-4.22,2.71-1.63,0-2-1.67-2.83-5l-.07-.3c-1.07-4.45-2.31-8.94-3.52-13.28q-.68-2.43-1.34-4.86l-.1-.36a3.1,3.1,0,0,1,0-2.6,2.81,2.81,0,0,1,2.07-1.14c13.93-3.75,23.75-5.74,38.51-6.15,10.51.57,18.75,1,26.4,5.55a19.17,19.17,0,0,1,9.54,13.59c.93,5.49-2.22,9.8-5.25,13.4A150.84,150.84,0,0,1,450.89,84a107.28,107.28,0,0,1-8.6,7c-1.28,1-2.56,1.95-3.81,2.95a2.13,2.13,0,0,1-.28.19c-4.64,3.33-4.64,3.33-3.67,8.47l.16.85c1.16,6.18,2.11,12.5,3,18.62.45,3,.9,6,1.38,9,.39,2.47-.53,4-3.09,5l-8.71,3.2a3.8,3.8,0,0,1-1.32.24ZM436.4,63.52a19.17,19.17,0,0,0-6,1.46l-1.21.43a1.36,1.36,0,0,0-1.09,1.47c.28,2.26.62,4.56.94,6.79s.62,4.26.89,6.4c0,.12,0,.23,0,.32l.21-.18c1.28-1.17,2.57-2.33,3.86-3.48,2.84-2.54,5.78-5.16,8.44-7.93,1.61-1.68,1.68-2.51,1.58-2.86s-.64-1-3.05-1.62l-.92-.25A11.85,11.85,0,0,0,436.4,63.52Z"/><path class="cls-1" d="M487,140.2c-.28,0-.58,0-.93,0l-5.54-.59c-4.22-.46-8.21-.89-12.16-1.17a4.13,4.13,0,0,1-3.17-1.26,4.52,4.52,0,0,1-.55-3.54c1.42-9.79,2.66-19.33,4-29.91.37-2.83.7-5.67,1-8.5.4-3.45.82-7,1.3-10.53.2-1.45,0-1.88-.07-2a.86.86,0,0,0-.59-.14,5.13,5.13,0,0,0-1.06.14l-.55.13a6,6,0,0,1-1.49.25,3.17,3.17,0,0,1-2.45-1.25,1,1,0,0,1-.21-.4,4.86,4.86,0,0,1,.07-3.37c.07-.21.14-.44.22-.72a20.32,20.32,0,0,1,.75-2.44c1.69-4.59,4-6.53,8.77-7.39a165,165,0,0,0,17-4.35l2.35-.69a6.1,6.1,0,0,1,1.67-.32,1.7,1.7,0,0,1,1.32.53,3.29,3.29,0,0,1,.41,2.61c-2,19.47-3.88,39.28-5.74,58.44l-.6,6.23c-.09.92-.13,1.86-.17,2.78s-.08,1.82-.16,2.74l0,.42C490.27,138.19,490.1,140.2,487,140.2Z"/><path class="cls-1" d="M489.57,53.4H489c-4.69-.14-8.19-1.48-10.39-4-1.94-2.19-2.75-5.15-2.41-8.81.68-7.39,4.88-12,11-12h.4c3.49.11,7.54,2.19,10.32,5.29,2.1,2.34,3.16,4.88,3,7.15C500.44,47.13,496.07,53.4,489.57,53.4Z"/><path class="cls-3" d="M423.18,157.52c-3.81-10-8-19.88-12.17-29.74-1.1-2.58-2-5.24-3.12-7.81-3.11-7.23-6.37-14.41-9.4-21.67-3.67-8.76-7.14-17.61-10.75-26.39-4-9.58-8-19.13-11.93-28.7-1.29-3.1-2.48-6.24-3.82-9.32-.3-.92-1.1-1-1.54-.21-2.26,4.16-4.33,8.41-6.45,12.64q-6.52,13-13,26-6.6,13.16-13.22,26.32c-1,2-.9,3.51,1.19,5l.07,0a6.67,6.67,0,0,1,.85,10.12l-12.6,12c-2,1.43-4.18,3.16-5.24,5.1-3.7,6.81-6.74,14-10.27,20.88-1.11,2.18-.83,2,2.56,1.94,6.89-.33,14.91-.63,22.91-1.17a4.58,4.58,0,0,0,3.12-2.15c2.25-4.29,4.22-8.73,6.26-13.13,4.8-10.37,9.53-20.78,14.45-31.1a3.9,3.9,0,0,1,3-1.86c3.76.32,7.5,1,11.23,1.69a2.88,2.88,0,0,1,1.76,1.2,52.3,52.3,0,0,1,2.94,5.78c3.64,8.66,7.15,17.38,10.83,26s7.62,17.39,11.28,26.14c.68,1.63,1.39,2.18,3.07,2,5.49-.64,11-1.21,16.49-1.76C426.86,164.77,426,164.84,423.18,157.52ZM375.38,92.13c-4-.48-7.09-.91-10.21-1.18-2.23-.24-2.42-.51-1.6-2.54,2.17-5.38,4.07-10,6.26-15.42.11-.28.35-1,.86-1s.64.75.74,1.06l4.5,17.35C376.34,91.84,376.18,92.13,375.38,92.13Z"/><path class="cls-3" d="M330.53,109.83c-3.95-3.84-8-7.53-12-11.33-1.91-1.82-3.26-1.86-5.36.18-4.06,4-10.37,7-16.79,8.22-.61.12-2.84.61-3.18-.28s1.3-2.19,1.6-2.52c5.4-5.89,9.74-10.64,15.21-16.46,4-4.23,8.14-8.31,12.07-12.6a2.91,2.91,0,0,0,0-2.83c-4.38-4.78-9.57-8.55-16-10-12.73-2.84-24.78-1.61-36,5.83-8.85,5.84-14.4,13.67-15.84,24-1.75,12.48,2.63,23,12.67,30.52,6.34,4.73,14.07,6.54,22.11,6.33,16-.39,30-5.84,41.61-16.94A1.51,1.51,0,0,0,330.53,109.83Zm-45.61-9.3c-1.58,1.77-3,3.67-4.72,5.33a2.37,2.37,0,0,1-2.29.17,16.76,16.76,0,0,1-6.3-15.8c1.23-9.41,9-15.74,17.61-15.21a15.72,15.72,0,0,1,2.57.36,55.5,55.5,0,0,1,8.4,2.93c2.1,1,2.32,2.62.68,4.43Q292.88,91.62,284.92,100.53Z"/><path class="cls-3" d="M283.8,157.47c0,1.94-.84,1.94-2.19,1.23-5.73-3-11.45-6-17.19-9-2.5-1.29-5-2.51-7.56-3.73-5.34-2.56-10.74-5-16-7.66-9.18-4.58-18.3-9.28-27.46-13.91-3.87-2-3.89-1.94-3.89,2.22v15.63h.05c0,5.53-.08,11.07,0,16.6,0,2.17-.7,2.74-3,3a93,93,0,0,0-13.06,2.21c-2.56.65-3.41.4-3.56-2.14-.12-2.09-.19-3.87-.35-6-.32-4.55,0-9.13,1.86-13.29,5.63-12.42,5.34-24.85-1.47-36.94a25.87,25.87,0,0,0-1.93-2.52c-2.51-3.42-4-6-4.1-10-.32-8.34-1.2-16.65-1.76-25-.14-2.07-.8-2.27-2.63-1.49s-4.17,2.26-5.11.7a13.1,13.1,0,0,1-1.17-6c0-1.42,1.19-1.88,2-2.14,8.7-2.61,17.46-5,26.16-7.61,1.84-.55,2.21,0,2.31,1.67.51,8.52,1.1,17,1.68,25.54a1.23,1.23,0,0,0,.73,1,1.85,1.85,0,0,0,2.2-.54c.57-.72,1.1-1.47,1.64-2.22l16.46-23.23c2.3-3.26,2.55-3.11,5.15-.28,3.28,3.57,6.87,6.86,10.39,10.22,2.57,2.45,5.31,4.75,7.79,7.29a2.63,2.63,0,0,1-.18,2.56c-6.06,6.43-12.25,12.74-18.36,19.13q-5.36,5.6-10.54,11.35c-.47.52-.85,1.1.35,1.58,6.74,2.67,13.56,5.13,20.26,7.89,4.22,1.73,8.09,3.5,10.87,8,3.85,6.18,9.9,10.59,16.84,13.23,4.22,1.6,8.69,2.56,13,4a2.67,2.67,0,0,1,1.6,1.83C283.84,146.18,283.76,151.83,283.8,157.47Z"/><path class="cls-3" d="M122.4,80.76C119.34,68.83,110,62.84,99.47,58c-5.09-2.33-5.57-2.43-12.19-3-2.13,0-7.32,0-9.54.09C63.34,55,46.53,59.41,31.92,65.7c-4.65,2-9,4.79-13.4,7.28-1.78,1-1.77,2.13-.66,3.94,3.82,6.26,7.44,12.65,11,19.06,1.9,3.43,2.81,3.76,6.45,2.12,2.14-1,5-2.81,6.49-2.08,1.79.91,2.52,4,3.55,6.29,1.35,2.94,2.45,6,3.82,8.94,2.86,6.16,6,12.21,8.73,18.41,3.51,7.88,6.73,15.9,10.2,23.81,5,11.4,10.14,22.73,15.14,34.13.69,1.56,1.44,1.84,3,1.27,4.26-1.56,8.57-3,12.86-4.48,2.27-.77,2.52-.79,4.43-1.55,1.27-.51.09-3.63-.31-5.35-1.4-6-2.76-12-4.25-18-2-8-4.12-15.91-6-23.9a3.3,3.3,0,0,1,1.11-2.8c9.57-6.56,17.89-14.28,23.69-24.49C122.6,99.65,124.88,90.42,122.4,80.76ZM104,107.48c-3.58,6.77-9.34,10.57-14.81,15-.21.14-1.16.19-1.54-.92-3.42-10.7-6.74-21.44-10.14-32.15-.58-1.83-.44-3,1.62-3.74a40.85,40.85,0,0,1,10-2.55C103.63,81.88,109.1,97.85,104,107.48Z"/><path class="cls-3" d="M186.34,120.72c-1-4.94-1-6-3-10.12-3.61-7.16-9.56-11.95-17.73-13.26-9.81-1.58-18.88.19-27.15,6-8.59,6.08-14.36,14-16.7,24.26-1.93,8.55-1,16.88,4.07,24,6,8.4,14.79,11.7,25,10.91,11.82-.91,21.12-6.41,28.12-15.94,4.88-6.64,7.75-14,7.69-22.31C186.63,123.17,186.34,121.66,186.34,120.72ZM171.83,126c-3.39,5.75-8.33,8.55-15.84,8.48-10.56,0-17.31-9.26-14.11-20.25,1.59-5.43,7.89-10.37,13.52-9.91a6.1,6.1,0,0,1,1.43.35l-1.08,1c-2.41,2.18-4.17,4.68-4.18,8.39,0,4.26,5.1,8.23,9.49,8.28,4.59.06,8.53-4.1,9.78-8.32.19-.65.34-1.31.52-2a9.62,9.62,0,0,1,1.42,1.62C174.66,117.74,174.21,122,171.83,126Z"/><path class="cls-3" d="M311.53,32.7l-26.4,13.74a2.25,2.25,0,0,1-.51.2c-.91.23-2.12.46-2.59,0-1-.94-1.72-2-.23-3.75,6.39-7.29,12.52-14.81,18.77-22.23a2.92,2.92,0,0,1,4.41-.3l7.14,8.23a2.7,2.7,0,0,1,.45.7c0,.06,0,.12.07.17A2.46,2.46,0,0,1,311.53,32.7Z"/><path class="cls-3" d="M467.32,57.73a18.17,18.17,0,0,0-9.06-12.89c-7.33-4.33-15.32-4.83-25.86-5.41-15,.42-25.06,2.56-38.37,6.14-2.14.36-1.53,1.58-1.18,2.86,1.65,6,3.41,12.07,4.87,18.17,1.34,5.57,1.27,5.68,5.5,2.06,1.75-1.5,2.1-.93,2.55.93,1.45,6.11,3.08,12.17,4.58,18.26,2.2,9.34,3.05,13.3,4.71,19.9,2.17,10.16,4.56,19.75,8.34,29.12a2.78,2.78,0,0,0,3.55,1.55l8.68-3.19c2.22-.9,2.78-2,2.48-3.92-1.46-9.19-2.69-18.43-4.4-27.58-1.21-6.49-1.49-6.44,3.88-10.3a2.53,2.53,0,0,0,.27-.18c4.14-3.29,8.52-6.33,12.35-9.94a151.48,151.48,0,0,0,12.08-13C465.28,66.76,468.16,62.76,467.32,57.73ZM443.26,69.49c-3.88,4-8.21,7.65-12.34,11.45-1.17,1.09-1.71,1-1.93-.74-.56-4.4-1.28-8.79-1.83-13.19a2.34,2.34,0,0,1,1.75-2.54c2.62-.92,4.58-1.8,7.47-1.95a15.72,15.72,0,0,1,4.91.83C445.59,64.38,446.35,66.26,443.26,69.49Z"/><path class="cls-3" d="M496.18,65.16q-3.25,32.32-6.34,64.67c-.18,1.84-.16,3.69-.33,5.52-.26,2.9-.2,4.11-3.3,3.81-6.51-.67-12.11-1.37-17.72-1.76-2.66-.18-3.15-1.22-2.8-3.66,1.44-10,2.74-19.94,4-29.92.82-6.34,1.47-12.69,2.33-19,.34-2.46,0-3.76-2.92-3.12-1.44.32-2.32.82-3.53-.55-.49-1.81-.09-2.16.29-3.56a19.32,19.32,0,0,1,.72-2.35c1.59-4.31,3.67-6,8-6.75a191.51,191.51,0,0,0,19.44-5.07C496.15,62.78,496.4,63.1,496.18,65.16Z"/><path class="cls-3" d="M499.91,41c-.46,6-4.91,11.71-10.81,11.39-8.14-.25-12.54-4.26-11.86-11.68.58-6.35,4.1-11.27,10.33-11.07C493.49,29.83,500.28,36,499.91,41Z"/></g></g></svg>