<?xml version="1.0" standalone="no"?><svg xmlns="http://www.w3.org/2000/svg" viewBox="0 0 1440 320"><path fill="#775fe4" fill-opacity="1" d="M0,0L24,32C48,64,96,128,144,138.7C192,149,240,107,288,80C336,53,384,43,432,37.3C480,32,528,32,576,53.3C624,75,672,117,720,149.3C768,181,816,203,864,229.3C912,256,960,288,1008,277.3C1056,267,1104,213,1152,202.7C1200,192,1248,224,1296,208C1344,192,1392,128,1416,96L1440,64L1440,0L1416,0C1392,0,1344,0,1296,0C1248,0,1200,0,1152,0C1104,0,1056,0,1008,0C960,0,912,0,864,0C816,0,768,0,720,0C672,0,624,0,576,0C528,0,480,0,432,0C384,0,336,0,288,0C240,0,192,0,144,0C96,0,48,0,24,0L0,0Z"></path></svg>