<?xml version="1.0" standalone="no"?><svg xmlns="http://www.w3.org/2000/svg" viewBox="0 0 1440 320"><path fill="#462de7" fill-opacity="1" d="M0,128L34.3,117.3C68.6,107,137,85,206,101.3C274.3,117,343,171,411,208C480,245,549,267,617,240C685.7,213,754,139,823,133.3C891.4,128,960,192,1029,181.3C1097.1,171,1166,85,1234,74.7C1302.9,64,1371,128,1406,160L1440,192L1440,320L1405.7,320C1371.4,320,1303,320,1234,320C1165.7,320,1097,320,1029,320C960,320,891,320,823,320C754.3,320,686,320,617,320C548.6,320,480,320,411,320C342.9,320,274,320,206,320C137.1,320,69,320,34,320L0,320Z"></path></svg>